<svg width="25" height="25" viewBox="0 0 25 25" fill="none" xmlns="http://www.w3.org/2000/svg">
<path d="M11.0804 8.81117L17.5156 2.44372C17.5387 2.42085 17.5618 2.39799 17.5858 2.37598H5.07139C3.5593 2.37598 2.33301 3.58936 2.33301 5.08553V19.9881C2.33301 21.4842 3.5593 22.6976 5.07139 22.6976H20.1325C21.6446 22.6976 22.8708 21.4842 22.8708 19.9881V7.60542C22.8486 7.62913 22.8255 7.65199 22.8024 7.67485L21.5017 8.96188V19.988C21.5017 20.7365 20.8889 21.3428 20.1325 21.3428H5.07139C4.31492 21.3428 3.7022 20.7365 3.7022 19.988V8.81123L11.0804 8.81117Z" fill="white"/>
<path d="M10.24 13.553H6.44045C6.06221 13.553 5.75586 13.2499 5.75586 12.8756C5.75586 12.5014 6.06221 12.1982 6.44045 12.1982H10.3092L10.216 13.0272C10.1963 13.205 10.2049 13.382 10.24 13.553Z" fill="white"/>
<path d="M5.75586 16.9401C5.75586 16.5658 6.06221 16.2627 6.44045 16.2627H18.7632C19.1414 16.2627 19.4478 16.5658 19.4478 16.9401C19.4478 17.3143 19.1414 17.6175 18.7632 17.6175H6.44045C6.06221 17.6175 5.75586 17.3143 5.75586 16.9401Z" fill="white"/>
<path d="M18.2418 3.16153C19.3003 2.11413 21.017 2.11413 22.0764 3.16153C23.1349 4.20978 23.1349 5.90837 22.0764 6.95577L15.6259 13.3384C15.5163 13.4468 15.3726 13.5154 15.2177 13.5323L11.9923 13.8871C11.7861 13.9099 11.5798 13.8388 11.4326 13.6932C11.2855 13.5475 11.2136 13.3435 11.2367 13.1394L11.5952 9.94799C11.6123 9.79473 11.6817 9.65247 11.7912 9.54409L18.2418 3.16153Z" fill="white"/>
</svg>
