<svg width="33" height="32" viewBox="0 0 33 32" fill="none" xmlns="http://www.w3.org/2000/svg">
<g clip-path="url(#clip0_755_1340)">
<path d="M16.1296 9.62881C14.9616 9.62881 13.1536 8.30081 11.2496 8.34881C8.73761 8.38081 6.43361 9.80481 5.13761 12.0608C2.52961 16.5888 4.46561 23.2768 7.00961 26.9568C8.25761 28.7488 9.72961 30.7648 11.6816 30.7008C13.5536 30.6208 14.2576 29.4848 16.5296 29.4848C18.7856 29.4848 19.4256 30.7008 21.4096 30.6528C23.4256 30.6208 24.7056 28.8288 25.9376 27.0208C27.3616 24.9408 27.9536 22.9248 27.9856 22.8128C27.9376 22.7968 24.0656 21.3088 24.0176 16.8288C23.9856 13.0848 27.0736 11.2928 27.2176 11.2128C25.4576 8.63681 22.7536 8.34881 21.8096 8.28481C19.3456 8.09281 17.2816 9.62881 16.1296 9.62881ZM20.2896 5.85281C21.3296 4.60481 22.0176 2.86081 21.8256 1.13281C20.3376 1.19681 18.5456 2.12481 17.4736 3.37281C16.5136 4.47681 15.6816 6.25281 15.9056 7.94881C17.5536 8.07681 19.2496 7.10081 20.2896 5.85281Z" fill="black"/>
</g>
<defs>
<clipPath id="clip0_755_1340">
<rect width="32" height="32" fill="white" transform="translate(0.630859)"/>
</clipPath>
</defs>
</svg>
