<svg width="33" height="32" viewBox="0 0 33 32" fill="none" xmlns="http://www.w3.org/2000/svg">
<g clip-path="url(#clip0_755_3806)">
<path d="M32.6309 16C32.6309 7.16344 25.4674 0 16.6309 0C7.7943 0 0.630859 7.16344 0.630859 16C0.630859 23.9861 6.48183 30.6053 14.1309 31.8056V20.625H10.0684V16H14.1309V12.475C14.1309 8.465 16.5195 6.25 20.1743 6.25C21.9248 6.25 23.7559 6.5625 23.7559 6.5625V10.5H21.7383C19.7507 10.5 19.1309 11.7333 19.1309 12.9987V16H23.5684L22.859 20.625H19.1309V31.8056C26.7799 30.6053 32.6309 23.9861 32.6309 16Z" fill="#1877F2"/>
<path d="M22.859 20.625L23.5684 16H19.1309V12.9987C19.1309 11.7333 19.7507 10.5 21.7383 10.5H23.7559V6.5625C23.7559 6.5625 21.9248 6.25 20.1743 6.25C16.5195 6.25 14.1309 8.465 14.1309 12.475V16H10.0684V20.625H14.1309V31.8056C14.9455 31.9334 15.7804 32 16.6309 32C17.4814 32 18.3163 31.9334 19.1309 31.8056V20.625H22.859Z" fill="white"/>
</g>
<defs>
<clipPath id="clip0_755_3806">
<rect width="32" height="32" fill="white" transform="translate(0.630859)"/>
</clipPath>
</defs>
</svg>
