<svg width="33" height="32" viewBox="0 0 33 32" fill="none" xmlns="http://www.w3.org/2000/svg">
<path d="M7.72299 19.3392L6.60908 23.4976L2.53774 23.5837C1.32101 21.327 0.630859 18.7449 0.630859 16.0011C0.630859 13.3478 1.27613 10.8457 2.41992 8.64258H2.4208L6.04543 9.3071L7.63324 12.91C7.30091 13.8788 7.11978 14.9189 7.11978 16.0011C7.11991 17.1756 7.33267 18.301 7.72299 19.3392Z" fill="#FBBB00"/>
<path d="M32.3512 13.0117C32.5349 13.9796 32.6308 14.9792 32.6308 16.0008C32.6308 17.1464 32.5103 18.2638 32.2809 19.3416C31.502 23.0095 29.4667 26.2122 26.6473 28.4787L26.6464 28.4778L22.081 28.2448L21.4348 24.2113C23.3057 23.1141 24.7677 21.3971 25.5379 19.3416H16.9819V13.0117H25.6627H32.3512Z" fill="#518EF8"/>
<path d="M26.6489 28.4767L26.6498 28.4775C23.9078 30.6816 20.4245 32.0003 16.6328 32.0003C10.5394 32.0003 5.2416 28.5945 2.53906 23.5824L7.72431 19.3379C9.07555 22.9441 12.5544 25.5113 16.6328 25.5113C18.3858 25.5113 20.0281 25.0374 21.4373 24.2101L26.6489 28.4767Z" fill="#28B446"/>
<path d="M26.8431 3.68363L21.6596 7.92729C20.2011 7.01563 18.477 6.48899 16.63 6.48899C12.4593 6.48899 8.91538 9.1739 7.63183 12.9095L2.41933 8.64207H2.41846C5.08143 3.50782 10.446 0 16.63 0C20.5123 0 24.072 1.38293 26.8431 3.68363Z" fill="#F14336"/>
</svg>
