<svg width="18" height="19" viewBox="0 0 18 19" fill="none" xmlns="http://www.w3.org/2000/svg">
<path d="M12.2812 15.1329C12.0326 15.1329 11.7942 15.2348 11.6183 15.4163C11.4425 15.5978 11.3438 15.844 11.3438 16.1006C11.3438 16.3573 11.4425 16.6034 11.6183 16.7849C11.7942 16.9664 12.0326 17.0684 12.2812 17.0684H14.1562C14.6535 17.0684 15.1304 16.8644 15.4821 16.5015C15.8337 16.1385 16.0312 15.6462 16.0312 15.1329V4.00384C16.0312 3.49052 15.8337 2.99822 15.4821 2.63525C15.1304 2.27228 14.6535 2.06836 14.1562 2.06836H12.2812C12.0326 2.06836 11.7942 2.17032 11.6183 2.3518C11.4425 2.53329 11.3438 2.77944 11.3438 3.0361C11.3438 3.29276 11.4425 3.53891 11.6183 3.7204C11.7942 3.90188 12.0326 4.00384 12.2812 4.00384H14.1562V6.4232H12.2812C12.0326 6.4232 11.7942 6.52516 11.6183 6.70664C11.4425 6.88813 11.3438 7.13428 11.3438 7.39094C11.3438 7.6476 11.4425 7.89375 11.6183 8.07524C11.7942 8.25672 12.0326 8.35868 12.2812 8.35868H14.1562V10.778H12.2812C12.0326 10.778 11.7942 10.88 11.6183 11.0615C11.4425 11.243 11.3438 11.4891 11.3438 11.7458C11.3438 12.0024 11.4425 12.2486 11.6183 12.4301C11.7942 12.6116 12.0326 12.7135 12.2812 12.7135H14.1562V15.1329H12.2812Z" fill="white"/>
<path d="M6.18678 9.80267V5.7397L7.39758 6.95109C7.57336 7.12696 7.81176 7.22576 8.06035 7.22576C8.30894 7.22576 8.54735 7.12696 8.72313 6.95109C8.89891 6.77523 8.99766 6.5367 8.99766 6.28799C8.99766 6.03928 8.89891 5.80075 8.72313 5.62488L6.71138 3.61214C6.51934 3.41993 6.29134 3.26746 6.04039 3.16343C5.78944 3.0594 5.52046 3.00586 5.24883 3.00586C4.97719 3.00586 4.70822 3.0594 4.45727 3.16343C4.20632 3.26746 3.97831 3.41993 3.78627 3.61214L1.77453 5.62488C1.59875 5.80075 1.5 6.03928 1.5 6.28799C1.5 6.5367 1.59875 6.77523 1.77453 6.95109C1.95031 7.12696 2.18872 7.22576 2.4373 7.22576C2.68589 7.22576 2.9243 7.12696 3.10008 6.95109L4.31322 5.7397V9.33405V13.397L3.10242 12.1856C2.92664 12.0098 2.68824 11.911 2.43965 11.911C2.19106 11.911 1.95265 12.0098 1.77687 12.1856C1.60109 12.3615 1.50234 12.6 1.50234 12.8487C1.50234 13.0974 1.60109 13.336 1.77687 13.5118L3.78862 15.5246C3.98065 15.7168 4.20866 15.8693 4.45961 15.9733C4.71056 16.0773 4.97953 16.1309 5.25117 16.1309C5.52281 16.1309 5.79178 16.0773 6.04273 15.9733C6.29368 15.8693 6.52169 15.7168 6.71372 15.5246L8.72547 13.5118C8.81251 13.4248 8.88155 13.3214 8.92865 13.2076C8.97575 13.0938 9 12.9719 9 12.8487C9 12.7256 8.97575 12.6036 8.92865 12.4899C8.88155 12.3761 8.81251 12.2727 8.72547 12.1856C8.63843 12.0985 8.5351 12.0295 8.42138 11.9823C8.30767 11.9352 8.18578 11.911 8.06269 11.911C7.9396 11.911 7.81772 11.9352 7.704 11.9823C7.59028 12.0295 7.48696 12.0985 7.39992 12.1856L6.18678 13.397V9.80267Z" fill="white"/>
</svg>
