<svg width="18" height="19" viewBox="0 0 18 19" fill="none" xmlns="http://www.w3.org/2000/svg">
<path d="M15.4648 6.40586C14.6773 2.94086 11.6548 1.38086 8.99983 1.38086C8.99983 1.38086 8.99983 1.38086 8.99233 1.38086C6.34483 1.38086 3.31483 2.93336 2.52733 6.39836C1.64983 10.2684 4.01983 13.5459 6.16483 15.6084C6.95983 16.3734 7.97983 16.7559 8.99983 16.7559C10.0198 16.7559 11.0398 16.3734 11.8273 15.6084C13.9723 13.5459 16.3423 10.2759 15.4648 6.40586ZM8.99983 10.1634C7.69483 10.1634 6.63733 9.10586 6.63733 7.80086C6.63733 6.49586 7.69483 5.43836 8.99983 5.43836C10.3048 5.43836 11.3623 6.49586 11.3623 7.80086C11.3623 9.10586 10.3048 10.1634 8.99983 10.1634Z" fill="white"/>
</svg>
