<svg width="18" height="19" viewBox="0 0 18 19" fill="none" xmlns="http://www.w3.org/2000/svg">
<path d="M9.5625 12.5086H10.05C10.5375 12.5086 10.9425 12.0736 10.9425 11.5486C10.9425 10.8961 10.71 10.7686 10.3275 10.6336L9.57 10.3711V12.5086H9.5625Z" fill="white"/>
<path d="M8.97755 1.99415C4.83755 2.00915 1.48505 5.37665 1.50005 9.51665C1.51505 13.6567 4.88255 17.0092 9.02255 16.9942C13.1625 16.9792 16.515 13.6117 16.5 9.47165C16.485 5.33165 13.1175 1.98665 8.97755 1.99415ZM10.695 9.56915C11.28 9.77165 12.0675 10.2067 12.0675 11.5492C12.0675 12.7042 11.16 13.6342 10.05 13.6342H9.56255V14.0692C9.56255 14.3767 9.30755 14.6317 9.00005 14.6317C8.69255 14.6317 8.43755 14.3767 8.43755 14.0692V13.6342H8.16755C6.93755 13.6342 5.94005 12.5992 5.94005 11.3242C5.94005 11.0167 6.19505 10.7617 6.50255 10.7617C6.81005 10.7617 7.06505 11.0167 7.06505 11.3242C7.06505 11.9767 7.56005 12.5092 8.16755 12.5092H8.43755V9.97415L7.30505 9.56915C6.72005 9.36665 5.93255 8.93165 5.93255 7.58915C5.93255 6.43415 6.84005 5.50415 7.95005 5.50415H8.43755V5.06915C8.43755 4.76165 8.69255 4.50665 9.00005 4.50665C9.30755 4.50665 9.56255 4.76165 9.56255 5.06915V5.50415H9.83255C11.0625 5.50415 12.06 6.53915 12.06 7.81415C12.06 8.12165 11.805 8.37665 11.4975 8.37665C11.19 8.37665 10.935 8.12165 10.935 7.81415C10.935 7.16165 10.44 6.62915 9.83255 6.62915H9.56255V9.16415L10.695 9.56915Z" fill="white"/>
<path d="M7.06543 7.59641C7.06543 8.24891 7.29793 8.37641 7.68043 8.51141L8.43793 8.77391V6.62891H7.95043C7.46293 6.62891 7.06543 7.06391 7.06543 7.59641Z" fill="white"/>
</svg>
