<svg width="21" height="21" viewBox="0 0 21 21" fill="none" xmlns="http://www.w3.org/2000/svg">
<path d="M18.3612 7.35686C17.9057 6.24575 18.8668 4.17352 18.039 3.34575C17.2112 2.51797 15.1279 3.47908 14.0279 3.02352C12.9279 2.56797 12.189 0.417969 10.9668 0.417969C9.74458 0.417969 8.9668 2.58464 7.90569 3.02352C6.84457 3.46241 4.72235 2.51797 3.89457 3.34575C3.0668 4.17352 4.02791 6.25686 3.57235 7.35686C3.1168 8.45686 0.966797 9.19575 0.966797 10.418C0.966797 11.6402 3.13346 12.418 3.57235 13.4791C4.01124 14.5402 3.0668 16.6624 3.89457 17.4902C4.72235 18.318 6.80569 17.3569 7.90569 17.8124C9.00569 18.268 9.74458 20.418 10.9668 20.418C12.189 20.418 12.9668 18.2513 14.0279 17.8124C15.089 17.3735 17.2112 18.318 18.039 17.4902C18.8668 16.6624 17.9057 14.5791 18.3612 13.4791C18.8168 12.3791 20.9668 11.6402 20.9668 10.418C20.9668 9.19575 18.8001 8.41797 18.3612 7.35686ZM16.139 7.79019L9.50569 14.4124C9.4535 14.4627 9.38372 14.4906 9.31124 14.4902C9.23898 14.4895 9.1696 14.4617 9.1168 14.4124L5.78346 11.0791C5.73257 11.0272 5.70406 10.9573 5.70406 10.8846C5.70406 10.8119 5.73257 10.7421 5.78346 10.6902L6.76124 9.71241C6.81317 9.66152 6.88298 9.63301 6.95569 9.63301C7.0284 9.63301 7.09821 9.66152 7.15013 9.71241L9.30013 11.8735L14.7501 6.42352C14.8021 6.37263 14.8719 6.34412 14.9446 6.34412C15.0173 6.34412 15.0871 6.37263 15.139 6.42352L16.1168 7.4013C16.1692 7.45176 16.1997 7.52076 16.2018 7.59348C16.2039 7.66619 16.1773 7.73683 16.1279 7.79019H16.139Z" fill="white"/>
</svg>
