<svg width="25" height="25" viewBox="0 0 25 25" fill="none" xmlns="http://www.w3.org/2000/svg">
<path d="M17.0842 4.09906V2.53906C17.0842 2.12906 16.7442 1.78906 16.3342 1.78906C15.9242 1.78906 15.5842 2.12906 15.5842 2.53906V4.03906H9.08421V2.53906C9.08421 2.12906 8.74421 1.78906 8.33421 1.78906C7.92421 1.78906 7.58421 2.12906 7.58421 2.53906V4.09906C4.88421 4.34906 3.57421 5.95906 3.37421 8.34906C3.35421 8.63906 3.59421 8.87906 3.87421 8.87906H20.7942C21.0842 8.87906 21.3242 8.62906 21.2942 8.34906C21.0942 5.95906 19.7842 4.34906 17.0842 4.09906Z" fill="white"/>
<path d="M20.334 10.3789H4.33398C3.78398 10.3789 3.33398 10.8289 3.33398 11.3789V17.5389C3.33398 20.5389 4.83398 22.5389 8.33398 22.5389H16.334C19.834 22.5389 21.334 20.5389 21.334 17.5389V11.3789C21.334 10.8289 20.884 10.3789 20.334 10.3789ZM9.54398 18.7489C9.49398 18.7889 9.44398 18.8389 9.39398 18.8689C9.33398 18.9089 9.27398 18.9389 9.21398 18.9589C9.15398 18.9889 9.09398 19.0089 9.03398 19.0189C8.96398 19.0289 8.90398 19.0389 8.83398 19.0389C8.70398 19.0389 8.57398 19.0089 8.45398 18.9589C8.32398 18.9089 8.22398 18.8389 8.12398 18.7489C7.94398 18.5589 7.83398 18.2989 7.83398 18.0389C7.83398 17.7789 7.94398 17.5189 8.12398 17.3289C8.22398 17.2389 8.32398 17.1689 8.45398 17.1189C8.63398 17.0389 8.83398 17.0189 9.03398 17.0589C9.09398 17.0689 9.15398 17.0889 9.21398 17.1189C9.27398 17.1389 9.33398 17.1689 9.39398 17.2089C9.44398 17.2489 9.49398 17.2889 9.54398 17.3289C9.72398 17.5189 9.83398 17.7789 9.83398 18.0389C9.83398 18.2989 9.72398 18.5589 9.54398 18.7489ZM9.54398 15.2489C9.35398 15.4289 9.09398 15.5389 8.83398 15.5389C8.57398 15.5389 8.31398 15.4289 8.12398 15.2489C7.94398 15.0589 7.83398 14.7989 7.83398 14.5389C7.83398 14.2789 7.94398 14.0189 8.12398 13.8289C8.40398 13.5489 8.84398 13.4589 9.21398 13.6189C9.34398 13.6689 9.45398 13.7389 9.54398 13.8289C9.72398 14.0189 9.83398 14.2789 9.83398 14.5389C9.83398 14.7989 9.72398 15.0589 9.54398 15.2489ZM13.044 18.7489C12.854 18.9289 12.594 19.0389 12.334 19.0389C12.074 19.0389 11.814 18.9289 11.624 18.7489C11.444 18.5589 11.334 18.2989 11.334 18.0389C11.334 17.7789 11.444 17.5189 11.624 17.3289C11.994 16.9589 12.674 16.9589 13.044 17.3289C13.224 17.5189 13.334 17.7789 13.334 18.0389C13.334 18.2989 13.224 18.5589 13.044 18.7489ZM13.044 15.2489C12.994 15.2889 12.944 15.3289 12.894 15.3689C12.834 15.4089 12.774 15.4389 12.714 15.4589C12.654 15.4889 12.594 15.5089 12.534 15.5189C12.464 15.5289 12.404 15.5389 12.334 15.5389C12.074 15.5389 11.814 15.4289 11.624 15.2489C11.444 15.0589 11.334 14.7989 11.334 14.5389C11.334 14.2789 11.444 14.0189 11.624 13.8289C11.714 13.7389 11.824 13.6689 11.954 13.6189C12.324 13.4589 12.764 13.5489 13.044 13.8289C13.224 14.0189 13.334 14.2789 13.334 14.5389C13.334 14.7989 13.224 15.0589 13.044 15.2489ZM16.544 18.7489C16.354 18.9289 16.094 19.0389 15.834 19.0389C15.574 19.0389 15.314 18.9289 15.124 18.7489C14.944 18.5589 14.834 18.2989 14.834 18.0389C14.834 17.7789 14.944 17.5189 15.124 17.3289C15.494 16.9589 16.174 16.9589 16.544 17.3289C16.724 17.5189 16.834 17.7789 16.834 18.0389C16.834 18.2989 16.724 18.5589 16.544 18.7489ZM16.544 15.2489C16.494 15.2889 16.444 15.3289 16.394 15.3689C16.334 15.4089 16.274 15.4389 16.214 15.4589C16.154 15.4889 16.094 15.5089 16.034 15.5189C15.964 15.5289 15.894 15.5389 15.834 15.5389C15.574 15.5389 15.314 15.4289 15.124 15.2489C14.944 15.0589 14.834 14.7989 14.834 14.5389C14.834 14.2789 14.944 14.0189 15.124 13.8289C15.224 13.7389 15.324 13.6689 15.454 13.6189C15.634 13.5389 15.834 13.5189 16.034 13.5589C16.094 13.5689 16.154 13.5889 16.214 13.6189C16.274 13.6389 16.334 13.6689 16.394 13.7089C16.444 13.7489 16.494 13.7889 16.544 13.8289C16.724 14.0189 16.834 14.2789 16.834 14.5389C16.834 14.7989 16.724 15.0589 16.544 15.2489Z" fill="white"/>
</svg>
