<svg width="19" height="19" viewBox="0 0 19 19" fill="none" xmlns="http://www.w3.org/2000/svg">
<path d="M10.0938 12.6029H10.6083C11.1229 12.6029 11.5504 12.1438 11.5504 11.5896C11.5504 10.9008 11.305 10.7663 10.9013 10.6238L10.1017 10.3467V12.6029H10.0938Z" fill="white"/>
<path d="M9.47598 1.50392C5.10598 1.51975 1.56723 5.07434 1.58306 9.44434C1.59889 13.8143 5.15348 17.3531 9.52348 17.3373C13.8935 17.3214 17.4322 13.7668 17.4164 9.39684C17.4006 5.02684 13.846 1.496 9.47598 1.50392ZM11.2889 9.49975C11.9064 9.7135 12.7376 10.1727 12.7376 11.5898C12.7376 12.8089 11.7797 13.7906 10.6081 13.7906H10.0935V14.2498C10.0935 14.5743 9.82431 14.8435 9.49973 14.8435C9.17514 14.8435 8.90598 14.5743 8.90598 14.2498V13.7906H8.62098C7.32264 13.7906 6.26973 12.6981 6.26973 11.3523C6.26973 11.0277 6.53889 10.7585 6.86348 10.7585C7.18806 10.7585 7.45723 11.0277 7.45723 11.3523C7.45723 12.041 7.97973 12.6031 8.62098 12.6031H8.90598V9.92725L7.71056 9.49975C7.09306 9.286 6.26181 8.82684 6.26181 7.40975C6.26181 6.19059 7.21973 5.20892 8.39139 5.20892H8.90598V4.74975C8.90598 4.42517 9.17514 4.156 9.49973 4.156C9.82431 4.156 10.0935 4.42517 10.0935 4.74975V5.20892H10.3785C11.6768 5.20892 12.7297 6.30142 12.7297 7.64725C12.7297 7.97184 12.4606 8.241 12.136 8.241C11.8114 8.241 11.5422 7.97184 11.5422 7.64725C11.5422 6.9585 11.0197 6.39642 10.3785 6.39642H10.0935V9.07225L11.2889 9.49975Z" fill="white"/>
<path d="M7.45703 7.41773C7.45703 8.10648 7.70245 8.24107 8.1062 8.38357L8.90578 8.66065V6.39648H8.3912C7.87661 6.39648 7.45703 6.85565 7.45703 7.41773Z" fill="white"/>
</svg>
