<svg width="24" height="23" viewBox="0 0 24 23" fill="none" xmlns="http://www.w3.org/2000/svg">
<g clip-path="url(#clip0_4288_23432)">
<path d="M20.0234 8.31798C19.0418 3.99911 15.2745 2.05469 11.9652 2.05469C11.9652 2.05469 11.9652 2.05469 11.9559 2.05469C8.65598 2.05469 4.87931 3.98976 3.89775 8.30863C2.80401 13.1323 5.75804 17.2175 8.43162 19.7882C9.42253 20.7417 10.6939 21.2185 11.9652 21.2185C13.2366 21.2185 14.508 20.7417 15.4895 19.7882C18.1631 17.2175 21.1171 13.1417 20.0234 8.31798ZM11.9652 13.0014C10.3387 13.0014 9.02056 11.6833 9.02056 10.0567C9.02056 8.43016 10.3387 7.11206 11.9652 7.11206C13.5918 7.11206 14.9099 8.43016 14.9099 10.0567C14.9099 11.6833 13.5918 13.0014 11.9652 13.0014Z" fill="white"/>
</g>
<defs>
<clipPath id="clip0_4288_23432">
<rect width="22.4357" height="22.4357" fill="white" transform="translate(0.748047 0.417969)"/>
</clipPath>
</defs>
</svg>
