<svg width="32" height="32" viewBox="0 0 32 32" fill="none" xmlns="http://www.w3.org/2000/svg">
<path d="M22.4 2.66602H18.9333C14.6667 2.66602 12 5.33268 12 9.59935V14.9993H17.92L15.16 12.2393C14.96 12.0393 14.8667 11.786 14.8667 11.5327C14.8667 11.2793 14.96 11.026 15.16 10.826C15.5467 10.4393 16.1867 10.4393 16.5733 10.826L21.04 15.2927C21.4267 15.6793 21.4267 16.3193 21.04 16.706L16.5733 21.1727C16.1867 21.5593 15.5467 21.5593 15.16 21.1727C14.7733 20.786 14.7733 20.146 15.16 19.7593L17.92 16.9993H12V22.3993C12 26.666 14.6667 29.3327 18.9333 29.3327H22.3867C26.6533 29.3327 29.32 26.666 29.32 22.3993V9.59935C29.3333 5.33268 26.6667 2.66602 22.4 2.66602Z" fill="white"/>
<path d="M3.66602 15C3.11935 15 2.66602 15.4533 2.66602 16C2.66602 16.5467 3.11935 17 3.66602 17H11.9993V15H3.66602Z" fill="white"/>
</svg>
