<svg width="24" height="25" viewBox="0 0 24 25" fill="none" xmlns="http://www.w3.org/2000/svg">
<path d="M19.3944 9.47795C18.9389 8.36684 19.9 6.29462 19.0722 5.46684C18.2444 4.63906 16.1611 5.60017 15.0611 5.14462C13.9611 4.68906 13.2222 2.53906 12 2.53906C10.7778 2.53906 10 4.70573 8.93889 5.14462C7.87778 5.58351 5.75556 4.63906 4.92778 5.46684C4.1 6.29462 5.06111 8.37795 4.60556 9.47795C4.15 10.578 2 11.3168 2 12.5391C2 13.7613 4.16667 14.5391 4.60556 15.6002C5.04444 16.6613 4.1 18.7835 4.92778 19.6113C5.75556 20.4391 7.83889 19.478 8.93889 19.9335C10.0389 20.3891 10.7778 22.5391 12 22.5391C13.2222 22.5391 14 20.3724 15.0611 19.9335C16.1222 19.4946 18.2444 20.4391 19.0722 19.6113C19.9 18.7835 18.9389 16.7002 19.3944 15.6002C19.85 14.5002 22 13.7613 22 12.5391C22 11.3168 19.8333 10.5391 19.3944 9.47795ZM17.1722 9.91129L10.5389 16.5335C10.4867 16.5838 10.4169 16.6117 10.3444 16.6113C10.2722 16.6106 10.2028 16.5828 10.15 16.5335L6.81667 13.2002C6.76577 13.1482 6.73726 13.0784 6.73726 13.0057C6.73726 12.933 6.76577 12.8632 6.81667 12.8113L7.79445 11.8335C7.84637 11.7826 7.91618 11.7541 7.98889 11.7541C8.0616 11.7541 8.13141 11.7826 8.18333 11.8335L10.3333 13.9946L15.7833 8.54462C15.8353 8.49372 15.9051 8.46521 15.9778 8.46521C16.0505 8.46521 16.1203 8.49372 16.1722 8.54462L17.15 9.5224C17.2024 9.57285 17.2329 9.64185 17.235 9.71457C17.2371 9.78729 17.2106 9.85792 17.1611 9.91129H17.1722Z" fill="white"/>
</svg>
