<svg width="21" height="21" viewBox="0 0 21 21" fill="none" xmlns="http://www.w3.org/2000/svg">
<path d="M16.8598 14.2138C18.0835 12.3924 18.5853 10.1806 18.2674 8.00934C17.9495 5.83813 16.8348 3.86301 15.1403 2.46879C13.4457 1.07457 11.2929 0.36111 9.10111 0.467407C6.90933 0.573704 4.83562 1.49215 3.28398 3.0438C1.73235 4.59545 0.813922 6.66917 0.707639 8.86096C0.601356 11.0527 1.31483 13.2056 2.70905 14.9001C4.10328 16.5946 6.0784 17.7094 8.24961 18.0273C10.4208 18.3451 12.6326 17.8433 14.4541 16.6196L17.7933 19.9588C18.1123 20.2778 18.545 20.457 18.9962 20.457C19.4473 20.457 19.88 20.2778 20.199 19.9588C20.518 19.6398 20.6973 19.2071 20.6973 18.7559C20.6973 18.3047 20.518 17.8721 20.199 17.553L16.8598 14.2138ZM9.53681 16.0791C8.19536 16.0791 6.88402 15.6813 5.76864 14.936C4.65326 14.1908 3.78393 13.1315 3.27058 11.8921C2.75723 10.6528 2.62292 9.28901 2.88463 7.97333C3.14634 6.65764 3.79231 5.44911 4.74087 4.50055C5.68943 3.552 6.89796 2.90602 8.21364 2.64432C9.52932 2.38261 10.8931 2.51693 12.1324 3.03029C13.3718 3.54365 14.431 4.41299 15.1763 5.52837C15.9216 6.64376 16.3194 7.9551 16.3194 9.29656C16.3173 11.0948 15.6021 12.8188 14.3306 14.0903C13.059 15.3618 11.335 16.0771 9.53681 16.0791Z" fill="#20D795"/>
</svg>
