<svg width="26" height="26" viewBox="0 0 26 26" fill="none" xmlns="http://www.w3.org/2000/svg">
<path d="M20.7032 17.696C22.2328 15.4192 22.86 12.6544 22.4627 9.94039C22.0653 7.22637 20.6719 4.75747 18.5537 3.0147C16.4356 1.27192 13.7445 0.380098 11.0048 0.51297C8.26508 0.645842 5.67295 1.79389 3.7334 3.73346C1.79385 5.67302 0.64582 8.26518 0.512966 11.0049C0.380113 13.7446 1.27195 16.4357 3.01474 18.5538C4.75752 20.672 7.22642 22.0654 9.94043 22.4628C12.6544 22.8601 15.4192 22.2328 17.696 20.7032L21.87 24.8772C22.2688 25.276 22.8097 25.5 23.3736 25.5C23.9376 25.5 24.4784 25.276 24.8772 24.8772C25.276 24.4784 25.5 23.9376 25.5 23.3736C25.5 22.8096 25.276 22.2688 24.8772 21.87L20.7032 17.696ZM11.5494 20.0276C9.87261 20.0276 8.23345 19.5304 6.83922 18.5988C5.445 17.6672 4.35834 16.343 3.71665 14.7938C3.07496 13.2447 2.90707 11.54 3.2342 9.89537C3.56134 8.25076 4.36881 6.74009 5.5545 5.5544C6.7402 4.36871 8.25087 3.56124 9.89547 3.23411C11.5401 2.90698 13.2447 3.07488 14.7939 3.71658C16.3431 4.35827 17.6672 5.44495 18.5988 6.83918C19.5304 8.23341 20.0276 9.87258 20.0276 11.5494C20.0251 13.7972 19.131 15.9522 17.5416 17.5416C15.9522 19.131 13.7972 20.0251 11.5494 20.0276Z" fill="white"/>
</svg>
