<svg width="25" height="25" viewBox="0 0 25 25" fill="none" xmlns="http://www.w3.org/2000/svg">
<path d="M19.733 5.5132L14.563 2.5232C13.573 1.9532 12.023 1.9532 11.033 2.5232L5.81305 5.5332C3.74305 6.9332 3.62305 7.1432 3.62305 9.3732V14.8032C3.62305 17.0332 3.74305 17.2532 5.85305 18.6732L11.023 21.6632C11.523 21.9532 12.163 22.0932 12.793 22.0932C13.423 22.0932 14.063 21.9532 14.553 21.6632L19.773 18.6532C21.843 17.2532 21.963 17.0432 21.963 14.8132V9.3732C21.963 7.1432 21.843 6.9332 19.733 5.5132ZM12.793 15.3432C11.003 15.3432 9.54305 13.8832 9.54305 12.0932C9.54305 10.3032 11.003 8.8432 12.793 8.8432C14.583 8.8432 16.043 10.3032 16.043 12.0932C16.043 13.8832 14.583 15.3432 12.793 15.3432Z" fill="white"/>
</svg>
