<svg width="16" height="17" viewBox="0 0 16 17" fill="none" xmlns="http://www.w3.org/2000/svg">
<path d="M1.99833 13.8178C1.99729 13.896 2.02429 13.9719 2.07444 14.0318C2.12459 14.0918 2.19457 14.1317 2.27167 14.1445H2.33167C2.39768 14.1451 2.46232 14.1256 2.51706 14.0887C2.57181 14.0518 2.61409 13.9992 2.63833 13.9378C4.13834 10.1912 8.15834 10.1512 8.33167 10.1512H9.33167V12.4845C9.332 12.5503 9.3518 12.6145 9.38858 12.6691C9.42535 12.7237 9.47746 12.7662 9.53834 12.7912C9.59861 12.8174 9.6655 12.8244 9.72991 12.8113C9.79432 12.7982 9.85313 12.7656 9.89834 12.7178L14.565 8.05117C14.5969 8.02124 14.6223 7.9851 14.6397 7.94496C14.6571 7.90483 14.666 7.86157 14.666 7.81783C14.666 7.7741 14.6571 7.73084 14.6397 7.69071C14.6223 7.65057 14.5969 7.61443 14.565 7.5845L9.89834 2.91783C9.85702 2.86472 9.79971 2.82632 9.73487 2.80831C9.67004 2.7903 9.60113 2.79364 9.53834 2.81783C9.47308 2.84442 9.41792 2.891 9.38079 2.95089C9.34366 3.01078 9.32646 3.08089 9.33167 3.15117V5.4845C7.51748 5.46734 5.75826 6.10663 4.37833 7.2845C2.79834 8.71783 1.99833 10.9178 1.99833 13.8178Z" fill="white"/>
</svg>
