<svg width="18" height="19" viewBox="0 0 18 19" fill="none" xmlns="http://www.w3.org/2000/svg">
<path d="M8.22827 3.85352H2.43353C1.91248 3.85352 1.50195 4.26404 1.50195 4.78509V15.064C1.50195 15.5851 1.91248 16.0114 2.43353 16.0114H8.22827C8.40195 16.0114 8.54406 15.8535 8.54406 15.6798V4.18509C8.55985 3.99562 8.41774 3.85352 8.22827 3.85352ZM6.61774 9.91667C6.55459 10.043 6.41248 10.1377 6.25458 10.1377H5.55985V11.7956C5.55985 12.0956 5.32301 12.3325 5.02301 12.3325C4.72301 12.3325 4.48616 12.0956 4.48616 11.7956V10.1377H3.79143C3.64932 10.1377 3.50722 10.0588 3.42827 9.91667C3.36511 9.79036 3.36511 9.63246 3.45985 9.50615L4.69143 7.69036C4.77037 7.57983 4.89669 7.51667 5.02301 7.51667C5.14932 7.51667 5.27564 7.57983 5.35458 7.69036L6.58616 9.50615C6.6809 9.63246 6.69669 9.79036 6.61774 9.91667Z" fill="white"/>
<path d="M15.5549 3.85352H9.77592C9.60223 3.85352 9.44434 3.99562 9.44434 4.18509V15.6798C9.44434 15.8535 9.60223 16.0114 9.77592 16.0114H15.5549C16.0759 16.0114 16.5022 15.5851 16.5022 15.064V4.78509C16.5022 4.27983 16.0917 3.85352 15.5549 3.85352ZM14.5443 10.3588L13.3128 12.1746C13.2338 12.2851 13.1075 12.3483 12.9812 12.3483C12.8549 12.3483 12.7285 12.2851 12.6496 12.1746L11.418 10.3588C11.3391 10.2325 11.3233 10.0746 11.3864 9.94825C11.4496 9.82194 11.5917 9.7272 11.7496 9.7272H12.4443V8.0693C12.4443 7.7693 12.6812 7.53246 12.9812 7.53246C13.2812 7.53246 13.518 7.7693 13.518 8.0693V9.7272H14.2128C14.3549 9.7272 14.497 9.80615 14.5759 9.94825C14.6391 10.0746 14.6233 10.2325 14.5443 10.3588Z" fill="white"/>
</svg>
