<svg width="18" height="19" viewBox="0 0 18 19" fill="none" xmlns="http://www.w3.org/2000/svg">
<path d="M15.1449 5.8346L10.6918 2.86507C10.1913 2.53151 9.60338 2.35352 9.00195 2.35352C8.40053 2.35352 7.81256 2.53151 7.31211 2.86507L2.85898 5.8346C2.44147 6.11288 2.09914 6.48996 1.8624 6.93236C1.62567 7.37476 1.50185 7.86878 1.50195 8.37053V14.5393C1.50195 15.2852 1.79827 16.0006 2.32572 16.528C2.85316 17.0555 3.56853 17.3518 4.31445 17.3518H13.6895C14.4354 17.3518 15.1507 17.0555 15.6782 16.528C16.2056 16.0006 16.502 15.2852 16.502 14.5393V8.37053C16.5021 7.86878 16.3782 7.37476 16.1415 6.93236C15.9048 6.48996 15.5624 6.11288 15.1449 5.8346ZM3.37695 8.37053C3.37705 8.17755 3.42481 7.98757 3.51599 7.81748C3.60717 7.64739 3.73894 7.50245 3.89961 7.39553L6.18945 5.86741V9.38303H3.37695V8.37053ZM9.93945 15.4768H4.31445C4.06581 15.4768 3.82736 15.378 3.65154 15.2022C3.47573 15.0264 3.37695 14.7879 3.37695 14.5393V11.258H9.93945V15.4768ZM14.627 14.5393C14.627 14.7879 14.5282 15.0264 14.3524 15.2022C14.1766 15.378 13.9381 15.4768 13.6895 15.4768H11.8145V11.258H14.627V14.5393ZM14.627 9.38303H8.06445V4.61819L8.35273 4.426C8.54531 4.29752 8.77162 4.22895 9.00313 4.22895C9.23463 4.22895 9.46094 4.29752 9.65351 4.426L14.1066 7.39553C14.2669 7.50272 14.3982 7.64777 14.4889 7.81785C14.5797 7.98792 14.6271 8.17776 14.627 8.37053V9.38303Z" fill="white"/>
</svg>
