<svg width="18" height="19" viewBox="0 0 18 19" fill="none" xmlns="http://www.w3.org/2000/svg">
<path d="M9.56445 12.7937H10.052C10.5395 12.7937 10.9445 12.3588 10.9445 11.8338C10.9445 11.1813 10.712 11.0538 10.3295 10.9188L9.57195 10.6562V12.7937H9.56445Z" fill="white"/>
<path d="M8.9795 2.27931C4.8395 2.29431 1.487 5.66181 1.502 9.80181C1.517 13.9418 4.8845 17.2943 9.0245 17.2793C13.1645 17.2643 16.517 13.8968 16.502 9.75681C16.487 5.61681 13.1195 2.27181 8.9795 2.27931ZM10.697 9.85431C11.282 10.0568 12.0695 10.4918 12.0695 11.8343C12.0695 12.9893 11.162 13.9193 10.052 13.9193H9.5645V14.3543C9.5645 14.6618 9.3095 14.9168 9.002 14.9168C8.6945 14.9168 8.4395 14.6618 8.4395 14.3543V13.9193H8.1695C6.9395 13.9193 5.942 12.8843 5.942 11.6093C5.942 11.3018 6.197 11.0468 6.5045 11.0468C6.812 11.0468 7.067 11.3018 7.067 11.6093C7.067 12.2618 7.562 12.7943 8.1695 12.7943H8.4395V10.2593L7.307 9.85431C6.722 9.65181 5.9345 9.21681 5.9345 7.87431C5.9345 6.71931 6.842 5.78931 7.952 5.78931H8.4395V5.35431C8.4395 5.04681 8.6945 4.79181 9.002 4.79181C9.3095 4.79181 9.5645 5.04681 9.5645 5.35431V5.78931H9.8345C11.0645 5.78931 12.062 6.82431 12.062 8.09931C12.062 8.40681 11.807 8.66181 11.4995 8.66181C11.192 8.66181 10.937 8.40681 10.937 8.09931C10.937 7.44681 10.442 6.91431 9.8345 6.91431H9.5645V9.44931L10.697 9.85431Z" fill="white"/>
<path d="M7.06738 7.88156C7.06738 8.53406 7.29988 8.66156 7.68238 8.79656L8.43988 9.05906V6.91406H7.95238C7.46488 6.91406 7.06738 7.34906 7.06738 7.88156Z" fill="white"/>
</svg>
