<svg width="18" height="19" viewBox="0 0 18 19" fill="none" xmlns="http://www.w3.org/2000/svg">
<path d="M15.2301 6.2606C15.8358 6.2606 16.4254 6.48754 16.9238 6.89817V4.97771C16.9238 3.99545 16.5784 3.0684 15.9762 2.43434C15.4943 1.92689 14.8814 1.64746 14.2504 1.64746H4.04383C3.41278 1.64746 2.79988 1.92689 2.31803 2.4343C1.71575 3.0684 1.37036 3.9954 1.37036 4.97771V6.89817C1.86882 6.48758 2.45837 6.2606 3.06412 6.2606H3.1V5.25554C3.1 4.47959 3.60678 3.8483 4.2297 3.8483H7.2751C7.89801 3.8483 8.40479 4.47959 8.40479 5.25554V6.2606H9.88944V5.25554C9.88944 4.47959 10.3962 3.8483 11.0191 3.8483H14.0645C14.6874 3.8483 15.1942 4.47959 15.1942 5.25554V6.2606H15.2301Z" fill="white"/>
<path d="M4.23008 4.78711C4.02244 4.78711 3.85352 4.99754 3.85352 5.25619V6.26125H7.65204V5.25619C7.65204 4.99754 7.48312 4.78711 7.27548 4.78711H4.23008Z" fill="white"/>
<path d="M11.0196 4.78711C10.812 4.78711 10.6431 4.99754 10.6431 5.25619V6.26125H14.4416V5.25619C14.4416 4.99754 14.2727 4.78711 14.065 4.78711H11.0196Z" fill="white"/>
<path d="M15.2304 7.19922H3.06441C2.42293 7.19922 1.80468 7.53508 1.36825 8.12078C0.969575 8.65567 0.75 9.35226 0.75 10.0822V12.6578H17.5448V10.0822C17.5448 9.35226 17.3253 8.65572 16.9266 8.12082C16.4901 7.53513 15.8719 7.19922 15.2304 7.19922Z" fill="white"/>
<path d="M16.7922 16.6424C16.7922 16.9014 16.9609 17.1115 17.1688 17.1115C17.3767 17.1115 17.5454 16.9014 17.5454 16.6424V13.835H16.7922V16.6424Z" fill="white"/>
<path d="M1.50313 16.6424V13.835H0.75V16.6424C0.75 16.9014 0.918626 17.1115 1.12657 17.1115C1.33451 17.1115 1.50313 16.9015 1.50313 16.6424Z" fill="white"/>
</svg>
