<svg width="16" height="17" viewBox="0 0 16 17" fill="none" xmlns="http://www.w3.org/2000/svg">
<path d="M11.2129 1.79688H4.78622C3.36622 1.79688 2.21289 2.95688 2.21289 4.37021V13.7635C2.21289 14.9635 3.07289 15.4702 4.12622 14.8902L7.37956 13.0835C7.72622 12.8902 8.28622 12.8902 8.62622 13.0835L11.8796 14.8902C12.9329 15.4769 13.7929 14.9702 13.7929 13.7635V4.37021C13.7862 2.95688 12.6329 1.79688 11.2129 1.79688ZM9.66622 8.06354H8.49956V9.27021C8.49956 9.54354 8.27289 9.77021 7.99956 9.77021C7.72622 9.77021 7.49956 9.54354 7.49956 9.27021V8.06354H6.33289C6.05956 8.06354 5.83289 7.83688 5.83289 7.56354C5.83289 7.29021 6.05956 7.06354 6.33289 7.06354H7.49956V5.93688C7.49956 5.66354 7.72622 5.43688 7.99956 5.43688C8.27289 5.43688 8.49956 5.66354 8.49956 5.93688V7.06354H9.66622C9.93956 7.06354 10.1662 7.29021 10.1662 7.56354C10.1662 7.83688 9.93956 8.06354 9.66622 8.06354Z" fill="white"/>
</svg>
