<svg width="60" height="63" viewBox="0 0 60 63" fill="none" xmlns="http://www.w3.org/2000/svg">
<path d="M29.9999 35.3519C32.0709 35.3519 33.7499 33.6211 33.7499 31.486C33.7499 29.3509 32.0709 27.6201 29.9999 27.6201C27.9288 27.6201 26.2499 29.3509 26.2499 31.486C26.2499 33.6211 27.9288 35.3519 29.9999 35.3519Z" fill="white"/>
<path d="M30 5.71289C16.215 5.71289 5 17.2746 5 31.4857C5 45.6968 16.215 57.2584 30 57.2584C43.785 57.2584 55 45.6968 55 31.4857C55 17.2746 43.785 5.71289 30 5.71289ZM28.75 9.57881C28.75 8.86748 29.31 8.29017 30 8.29017C30.69 8.29017 31.25 8.86748 31.25 9.57881V12.1561C31.25 12.8674 30.69 13.4447 30 13.4447C29.31 13.4447 28.75 12.8674 28.75 12.1561V9.57881ZM11.25 32.7743H8.75C8.06 32.7743 7.5 32.197 7.5 31.4857C7.5 30.7743 8.06 30.197 8.75 30.197H11.25C11.94 30.197 12.5 30.7743 12.5 31.4857C12.5 32.197 11.94 32.7743 11.25 32.7743ZM31.25 53.3925C31.25 54.1038 30.69 54.6812 30 54.6812C29.31 54.6812 28.75 54.1038 28.75 53.3925V50.8152C28.75 50.1039 29.31 49.5266 30 49.5266C30.69 49.5266 31.25 50.1039 31.25 50.8152V53.3925ZM44.9512 16.915L36.4575 37.7974C36.3938 37.9533 36.275 38.077 36.1225 38.1428L15.8663 46.8991C15.7887 46.9326 15.7063 46.9493 15.625 46.9493C15.4625 46.9493 15.3025 46.8836 15.1825 46.7612C15.0025 46.5756 14.95 46.2973 15.0487 46.0563L23.5425 25.1739C23.6062 25.018 23.725 24.8943 23.8775 24.8286L44.1338 16.0723C44.3675 15.9705 44.6375 16.0246 44.8175 16.2101C44.9975 16.3957 45.05 16.674 44.9512 16.915ZM51.25 32.7743H48.75C48.06 32.7743 47.5 32.197 47.5 31.4857C47.5 30.7743 48.06 30.197 48.75 30.197H51.25C51.94 30.197 52.5 30.7743 52.5 31.4857C52.5 32.197 51.94 32.7743 51.25 32.7743Z" fill="white"/>
</svg>
