<svg width="34" height="46" viewBox="0 0 34 46" fill="none" xmlns="http://www.w3.org/2000/svg">
<path d="M22 1.35541C22 3.62865 23.2979 4.8005 24.3418 5.74181C25.4004 6.69822 26 7.30127 26 8.57682C26 9.85237 25.4004 10.4564 24.3408 11.4128C23.2979 12.3541 22 13.526 22 15.7992C22 18.0715 23.2979 19.2423 24.3418 20.1836C25.4004 21.139 26 21.7411 26 23.0156C26 24.2881 25.4014 24.8902 24.3418 25.8446C23.2988 26.7849 22 27.9557 22 30.2269C22 32.4982 23.2988 33.669 24.3418 34.6103C25.4004 35.5647 26 36.1678 26 37.4413C26 38.7148 25.4004 39.3169 24.3418 40.2713C23.2988 41.2116 22 42.3824 22 44.6537C22 45.2235 22.4473 45.6846 23 45.6846C23.5527 45.6846 24 45.2235 24 44.6537C24 43.3801 24.5996 42.7781 25.6582 41.8237C26.7012 40.8834 28 39.7125 28 37.4413C28 35.1701 26.7012 33.9992 25.6582 33.0579C24.5996 32.1035 24 31.5005 24 30.2269C24 28.9534 24.5996 28.3514 25.6582 27.397C26.7021 26.4567 28 25.2858 28 23.0156C28 20.7434 26.7021 19.5725 25.6582 18.6312C24.5996 17.6758 24 17.0738 24 15.7992C24 14.5237 24.5996 13.9196 25.6592 12.9632C26.7021 12.0219 28 10.8501 28 8.57682C28 6.30458 26.7021 5.13273 25.6592 4.19142C24.5996 3.23501 24 2.63096 24 1.35541C24 0.785587 23.5527 0.324497 23 0.324497C22.4473 0.324497 22 0.785587 22 1.35541Z" fill="#414141"/>
<path d="M14 1.35541C14 3.62865 15.2979 4.8005 16.3418 5.74181C17.4004 6.69822 18 7.30127 18 8.57682C18 9.85237 17.4004 10.4564 16.3408 11.4128C15.2979 12.3541 14 13.526 14 15.7992C14 18.0715 15.2979 19.2423 16.3418 20.1836C17.4004 21.139 18 21.7411 18 23.0156C18 24.2881 17.4014 24.8902 16.3418 25.8446C15.2988 26.7849 14 27.9557 14 30.2269C14 32.4982 15.2988 33.669 16.3418 34.6103C17.4004 35.5647 18 36.1678 18 37.4413C18 38.7148 17.4004 39.3169 16.3418 40.2713C15.2988 41.2116 14 42.3824 14 44.6537C14 45.2235 14.4473 45.6846 15 45.6846C15.5527 45.6846 16 45.2235 16 44.6537C16 43.3801 16.5996 42.7781 17.6582 41.8237C18.7012 40.8834 20 39.7125 20 37.4413C20 35.1701 18.7012 33.9992 17.6582 33.0579C16.5996 32.1035 16 31.5005 16 30.2269C16 28.9534 16.5996 28.3514 17.6582 27.397C18.7021 26.4567 20 25.2858 20 23.0156C20 20.7434 18.7021 19.5725 17.6582 18.6312C16.5996 17.6758 16 17.0738 16 15.7992C16 14.5237 16.5996 13.9196 17.6592 12.9632C18.7021 12.0219 20 10.8501 20 8.57682C20 6.30458 18.7021 5.13273 17.6592 4.19142C16.5996 3.23501 16 2.63096 16 1.35541C16 0.785587 15.5527 0.324497 15 0.324497C14.4473 0.324497 14 0.785587 14 1.35541Z" fill="#414141"/>
<path d="M6 1.35541C6 3.62865 7.29785 4.8005 8.3418 5.74181C9.40039 6.69822 10 7.30127 10 8.57682C10 9.85237 9.40039 10.4564 8.34082 11.4128C7.29785 12.3541 6 13.526 6 15.7992C6 18.0715 7.29785 19.2423 8.3418 20.1836C9.40039 21.139 10 21.7411 10 23.0156C10 24.2881 9.40137 24.8902 8.3418 25.8446C7.29883 26.7849 6 27.9557 6 30.2269C6 32.4982 7.29883 33.669 8.3418 34.6103C9.40039 35.5647 10 36.1678 10 37.4413C10 38.7148 9.40039 39.3169 8.3418 40.2713C7.29883 41.2116 6 42.3824 6 44.6537C6 45.2235 6.44727 45.6846 7 45.6846C7.55273 45.6846 8 45.2235 8 44.6537C8 43.3801 8.59961 42.7781 9.6582 41.8237C10.7012 40.8834 12 39.7125 12 37.4413C12 35.1701 10.7012 33.9992 9.6582 33.0579C8.59961 32.1035 8 31.5005 8 30.2269C8 28.9534 8.59961 28.3514 9.6582 27.397C10.7021 26.4567 12 25.2858 12 23.0156C12 20.7434 10.7021 19.5725 9.6582 18.6312C8.59961 17.6758 8 17.0738 8 15.7992C8 14.5237 8.59961 13.9196 9.65918 12.9632C10.7021 12.0219 12 10.8501 12 8.57682C12 6.30458 10.7021 5.13273 9.65918 4.19142C8.59961 3.23501 8 2.63096 8 1.35541C8 0.785587 7.55273 0.324497 7 0.324497C6.44727 0.324497 6 0.785587 6 1.35541Z" fill="#414141"/>
<rect x="32" y="0.324219" width="2" height="45.3601" rx="1" fill="#414141"/>
<rect y="0.324219" width="2" height="45.3601" rx="1" fill="#414141"/>
</svg>
