<svg width="22" height="46" viewBox="0 0 22 46" fill="none" xmlns="http://www.w3.org/2000/svg">
<path d="M16 1.35638C16 3.62962 17.2979 4.80148 18.3418 5.74279C19.4004 6.6992 20 7.30224 20 8.57779C20 9.85334 19.4004 10.4574 18.3408 11.4138C17.2979 12.3551 16 13.527 16 15.8002C16 18.0724 17.2979 19.2433 18.3418 20.1846C19.4004 21.14 20 21.742 20 23.0166C20 24.2891 19.4014 24.8912 18.3418 25.8455C17.2988 26.7859 16 27.9567 16 30.2279C16 32.4992 17.2988 33.67 18.3418 34.6113C19.4004 35.5657 20 36.1688 20 37.4423C20 38.7158 19.4004 39.3179 18.3418 40.2723C17.2988 41.2126 16 42.3834 16 44.6546C16 45.2245 16.4473 45.6855 17 45.6855C17.5527 45.6855 18 45.2245 18 44.6546C18 43.3811 18.5996 42.7791 19.6582 41.8247C20.7012 40.8844 22 39.7135 22 37.4423C22 35.1711 20.7012 34.0002 19.6582 33.0589C18.5996 32.1045 18 31.5015 18 30.2279C18 28.9544 18.5996 28.3524 19.6582 27.398C20.7021 26.4577 22 25.2868 22 23.0166C22 20.7444 20.7021 19.5735 19.6582 18.6322C18.5996 17.6768 18 17.0748 18 15.8002C18 14.5247 18.5996 13.9206 19.6592 12.9642C20.7021 12.0229 22 10.851 22 8.57779C22 6.30556 20.7021 5.13371 19.6592 4.1924C18.5996 3.23598 18 2.63194 18 1.35638C18 0.786564 17.5527 0.325474 17 0.325474C16.4473 0.325474 16 0.786564 16 1.35638Z" fill="#414141"/>
<path d="M8 1.35638C8 3.62962 9.29785 4.80148 10.3418 5.74279C11.4004 6.6992 12 7.30224 12 8.57779C12 9.85334 11.4004 10.4574 10.3408 11.4138C9.29785 12.3551 8 13.527 8 15.8002C8 18.0724 9.29785 19.2433 10.3418 20.1846C11.4004 21.14 12 21.742 12 23.0166C12 24.2891 11.4014 24.8912 10.3418 25.8455C9.29883 26.7859 8 27.9567 8 30.2279C8 32.4992 9.29883 33.67 10.3418 34.6113C11.4004 35.5657 12 36.1688 12 37.4423C12 38.7158 11.4004 39.3179 10.3418 40.2723C9.29883 41.2126 8 42.3834 8 44.6546C8 45.2245 8.44727 45.6855 9 45.6855C9.55273 45.6855 10 45.2245 10 44.6546C10 43.3811 10.5996 42.7791 11.6582 41.8247C12.7012 40.8844 14 39.7135 14 37.4423C14 35.1711 12.7012 34.0002 11.6582 33.0589C10.5996 32.1045 10 31.5015 10 30.2279C10 28.9544 10.5996 28.3524 11.6582 27.398C12.7021 26.4577 14 25.2868 14 23.0166C14 20.7444 12.7021 19.5735 11.6582 18.6322C10.5996 17.6768 10 17.0748 10 15.8002C10 14.5247 10.5996 13.9206 11.6592 12.9642C12.7021 12.0229 14 10.851 14 8.57779C14 6.30556 12.7021 5.13371 11.6592 4.1924C10.5996 3.23598 10 2.63194 10 1.35638C10 0.786564 9.55273 0.325474 9 0.325474C8.44727 0.325474 8 0.786564 8 1.35638Z" fill="#414141"/>
<path d="M0 1.35638C0 3.62962 1.29785 4.80148 2.3418 5.74279C3.40039 6.6992 4 7.30224 4 8.57779C4 9.85334 3.40039 10.4574 2.34082 11.4138C1.29785 12.3551 0 13.527 0 15.8002C0 18.0724 1.29785 19.2433 2.3418 20.1846C3.40039 21.14 4 21.742 4 23.0166C4 24.2891 3.40137 24.8912 2.3418 25.8455C1.29883 26.7859 0 27.9567 0 30.2279C0 32.4992 1.29883 33.67 2.3418 34.6113C3.40039 35.5657 4 36.1688 4 37.4423C4 38.7158 3.40039 39.3179 2.3418 40.2723C1.29883 41.2126 0 42.3834 0 44.6546C0 45.2245 0.447266 45.6855 1 45.6855C1.55273 45.6855 2 45.2245 2 44.6546C2 43.3811 2.59961 42.7791 3.6582 41.8247C4.70117 40.8844 6 39.7135 6 37.4423C6 35.1711 4.70117 34.0002 3.6582 33.0589C2.59961 32.1045 2 31.5015 2 30.2279C2 28.9544 2.59961 28.3524 3.6582 27.398C4.70215 26.4577 6 25.2868 6 23.0166C6 20.7444 4.70215 19.5735 3.6582 18.6322C2.59961 17.6768 2 17.0748 2 15.8002C2 14.5247 2.59961 13.9206 3.65918 12.9642C4.70215 12.0229 6 10.851 6 8.57779C6 6.30556 4.70215 5.13371 3.65918 4.1924C2.59961 3.23598 2 2.63194 2 1.35638C2 0.786564 1.55273 0.325474 1 0.325474C0.447266 0.325474 0 0.786564 0 1.35638Z" fill="#414141"/>
</svg>
