<svg width="18" height="20" viewBox="0 0 18 20" fill="none" xmlns="http://www.w3.org/2000/svg">
<path d="M9.5625 13.018H10.05C10.5375 13.018 10.9425 12.5696 10.9425 12.0284C10.9425 11.3557 10.71 11.2242 10.3275 11.0851L9.57 10.8145V13.018H9.5625Z" fill="white"/>
<path d="M8.97755 2.17775C4.83755 2.19321 1.48505 5.6648 1.50005 9.93277C1.51505 14.2007 4.88255 17.6569 9.02255 17.6414C13.1625 17.6259 16.515 14.1544 16.5 9.88638C16.4851 5.61841 13.1175 2.17002 8.97755 2.17775ZM10.6951 9.9869C11.2801 10.1957 12.0676 10.6441 12.0676 12.0281C12.0676 13.2188 11.16 14.1776 10.05 14.1776H9.56255V14.626C9.56255 14.943 9.30755 15.2059 9.00005 15.2059C8.69255 15.2059 8.43755 14.943 8.43755 14.626V14.1776H8.16755C6.93755 14.1776 5.94005 13.1106 5.94005 11.7961C5.94005 11.4791 6.19505 11.2163 6.50255 11.2163C6.81005 11.2163 7.06505 11.4791 7.06505 11.7961C7.06505 12.4688 7.56005 13.0178 8.16755 13.0178H8.43755V10.4044L7.30505 9.9869C6.72005 9.77814 5.93255 9.32969 5.93255 7.94569C5.93255 6.75499 6.84005 5.79624 7.95005 5.79624H8.43755V5.3478C8.43755 5.03079 8.69255 4.76791 9.00005 4.76791C9.30755 4.76791 9.56255 5.03079 9.56255 5.3478V5.79624H9.83255C11.0625 5.79624 12.0601 6.86324 12.0601 8.17765C12.0601 8.49465 11.805 8.75754 11.4976 8.75754C11.1901 8.75754 10.9351 8.49465 10.9351 8.17765C10.9351 7.50498 10.4401 6.95602 9.83255 6.95602H9.56255V9.56938L10.6951 9.9869Z" fill="white"/>
<path d="M7.06494 7.95444C7.06494 8.62711 7.29744 8.75855 7.67994 8.89772L8.43744 9.16833V6.95703H7.94994C7.46244 6.95703 7.06494 7.40548 7.06494 7.95444Z" fill="white"/>
</svg>
