<svg width="58" height="61" viewBox="0 0 58 61" fill="none" xmlns="http://www.w3.org/2000/svg">
<path d="M51.4752 55.0729C51.0402 55.0729 50.6052 54.8985 50.291 54.5746L45.796 49.9407C45.1435 49.268 45.1435 48.1718 45.796 47.4742C46.4485 46.8016 47.5118 46.8016 48.1885 47.4742L52.6835 52.1082C53.336 52.7808 53.336 53.877 52.6835 54.5746C52.3452 54.8985 51.9102 55.0729 51.4752 55.0729Z" fill="white"/>
<path d="M27.7916 5.24512C15.1283 5.24512 4.83325 15.8583 4.83325 28.9131C4.83325 41.9679 15.1283 52.5811 27.7916 52.5811C40.4549 52.5811 50.7499 41.9679 50.7499 28.9131C50.7499 15.8583 40.4549 5.24512 27.7916 5.24512ZM34.3166 31.2799H30.0874V35.6398C30.0874 36.6613 29.2658 37.5083 28.2749 37.5083C27.2841 37.5083 26.4624 36.6613 26.4624 35.6398V31.2799H22.2333C21.2424 31.2799 20.4208 30.4328 20.4208 29.4114C20.4208 28.3899 21.2424 27.5429 22.2333 27.5429H26.4624V23.183C26.4624 22.1615 27.2841 21.3144 28.2749 21.3144C29.2658 21.3144 30.0874 22.1615 30.0874 23.183V27.5429H34.3166C35.3074 27.5429 36.1291 28.3899 36.1291 29.4114C36.1291 30.4328 35.3074 31.2799 34.3166 31.2799Z" fill="white"/>
</svg>
