<svg width="17" height="17" viewBox="0 0 17 17" fill="none" xmlns="http://www.w3.org/2000/svg">
<path d="M2.0966 14.1899C2.09555 14.268 2.12256 14.344 2.17271 14.4039C2.22286 14.4638 2.29283 14.5038 2.36994 14.5166H2.42994C2.49595 14.5171 2.56058 14.4977 2.61533 14.4608C2.67007 14.4239 2.71235 14.3713 2.7366 14.3099C4.2366 10.5632 8.2566 10.5232 8.42994 10.5232H9.42994V12.8566C9.43026 12.9224 9.45007 12.9866 9.48684 13.0412C9.52362 13.0958 9.57573 13.1382 9.6366 13.1632C9.69688 13.1895 9.76376 13.1965 9.82818 13.1834C9.89259 13.1703 9.95139 13.1376 9.9966 13.0899L14.6633 8.42324C14.6952 8.39331 14.7206 8.35717 14.7379 8.31704C14.7553 8.2769 14.7643 8.23364 14.7643 8.18991C14.7643 8.14617 14.7553 8.10291 14.7379 8.06278C14.7206 8.02264 14.6952 7.9865 14.6633 7.95657L9.9966 3.28991C9.95529 3.23679 9.89797 3.19839 9.83314 3.18038C9.7683 3.16237 9.69939 3.16571 9.6366 3.18991C9.57134 3.21649 9.51619 3.26307 9.47906 3.32296C9.44193 3.38285 9.42473 3.45297 9.42994 3.52324V5.85657C7.61575 5.83941 5.85652 6.4787 4.4766 7.65657C2.8966 9.08991 2.0966 11.2899 2.0966 14.1899Z" fill="white"/>
</svg>
