<svg width="18" height="20" viewBox="0 0 18 20" fill="none" xmlns="http://www.w3.org/2000/svg">
<path d="M12.2815 15.9205C12.0329 15.9205 11.7944 16.0256 11.6186 16.2127C11.4428 16.3998 11.344 16.6536 11.344 16.9182C11.344 17.1828 11.4428 17.4365 11.6186 17.6236C11.7944 17.8107 12.0329 17.9158 12.2815 17.9158H14.1565C14.6538 17.9158 15.1307 17.7056 15.4823 17.3314C15.8339 16.9572 16.0315 16.4497 16.0315 15.9205V4.44746C16.0315 3.91827 15.8339 3.41075 15.4823 3.03656C15.1307 2.66237 14.6538 2.45215 14.1565 2.45215H12.2815C12.0329 2.45215 11.7944 2.55726 11.6186 2.74436C11.4428 2.93145 11.344 3.18521 11.344 3.4498C11.344 3.7144 11.4428 3.96816 11.6186 4.15525C11.7944 4.34235 12.0329 4.44746 12.2815 4.44746H14.1565V6.9416H12.2815C12.0329 6.9416 11.7944 7.04671 11.6186 7.23381C11.4428 7.4209 11.344 7.67466 11.344 7.93925C11.344 8.20385 11.4428 8.45761 11.6186 8.6447C11.7944 8.8318 12.0329 8.93691 12.2815 8.93691H14.1565V11.431H12.2815C12.0329 11.431 11.7944 11.5362 11.6186 11.7233C11.4428 11.9104 11.344 12.1641 11.344 12.4287C11.344 12.6933 11.4428 12.9471 11.6186 13.1342C11.7944 13.3213 12.0329 13.4264 12.2815 13.4264H14.1565V15.9205H12.2815Z" fill="white"/>
<path d="M6.18703 10.4249V6.23631L7.39782 7.48515C7.5736 7.66645 7.81201 7.76831 8.0606 7.76831C8.30918 7.76831 8.54759 7.66645 8.72337 7.48515C8.89915 7.30385 8.9979 7.05795 8.9979 6.80155C8.9979 6.54515 8.89915 6.29925 8.72337 6.11795L6.71163 4.04299C6.51959 3.84484 6.29158 3.68765 6.04063 3.58041C5.78968 3.47317 5.52071 3.41797 5.24907 3.41797C4.97744 3.41797 4.70846 3.47317 4.45751 3.58041C4.20656 3.68765 3.97856 3.84484 3.78652 4.04299L1.77477 6.11795C1.599 6.29925 1.50024 6.54515 1.50024 6.80155C1.50024 7.05795 1.599 7.30385 1.77477 7.48515C1.95055 7.66645 2.18896 7.76831 2.43755 7.76831C2.68614 7.76831 2.92455 7.66645 3.10032 7.48515L4.31346 6.23631V9.94177V14.1303L3.10267 12.8815C2.92689 12.7002 2.68848 12.5983 2.43989 12.5983C2.1913 12.5983 1.9529 12.7002 1.77712 12.8815C1.60134 13.0628 1.50259 13.3087 1.50259 13.5651C1.50259 13.8215 1.60134 14.0674 1.77712 14.2487L3.78886 16.3237C3.9809 16.5218 4.2089 16.679 4.45985 16.7862C4.7108 16.8935 4.97978 16.9487 5.25141 16.9487C5.52305 16.9487 5.79203 16.8935 6.04298 16.7862C6.29393 16.679 6.52193 16.5218 6.71397 16.3237L8.72571 14.2487C8.81275 14.1589 8.88179 14.0523 8.92889 13.9351C8.976 13.8178 9.00024 13.692 9.00024 13.5651C9.00024 13.4381 8.976 13.3124 8.92889 13.1951C8.88179 13.0778 8.81275 12.9713 8.72571 12.8815C8.63868 12.7917 8.53535 12.7205 8.42163 12.6719C8.30791 12.6233 8.18603 12.5983 8.06294 12.5983C7.93985 12.5983 7.81797 12.6233 7.70425 12.6719C7.59053 12.7205 7.4872 12.7917 7.40016 12.8815L6.18703 14.1303V10.4249Z" fill="white"/>
</svg>
