<svg width="30" height="30" viewBox="0 0 30 30" fill="none" xmlns="http://www.w3.org/2000/svg">
<path d="M10.0007 13.3337V23.3337H7.33398V8.66699H23.334V23.3337H20.6673V13.3337C20.6673 12.9657 20.3687 12.667 20.0007 12.667H10.6673C10.2993 12.667 10.0007 12.9657 10.0007 13.3337Z" stroke="#20D795"/>
<path d="M5.33398 8.66699H25.334" stroke="#20D795" stroke-linejoin="round"/>
<path d="M5.33398 6H25.334" stroke="#20D795" stroke-linejoin="round"/>
<path d="M15.3346 16.1797C17.1126 17.715 18.0013 19.2104 18.0013 20.665C18.0013 22.1377 16.8073 23.3317 15.3346 23.3317C13.862 23.3317 12.668 22.1197 12.668 20.665C12.668 19.2104 13.5566 17.715 15.3346 16.1797Z" stroke="#20D795"/>
<path d="M15.334 20.5C16.1627 20.5 16.834 21.1713 16.834 22C16.834 22.8287 16.1627 23.5 15.334 23.5C14.5053 23.5 13.834 22.8287 13.834 22C13.834 21.1713 14.5053 20.5 15.334 20.5Z" stroke="#20D795" stroke-linejoin="round"/>
</svg>
