<svg width="30" height="30" viewBox="0 0 30 30" fill="none" xmlns="http://www.w3.org/2000/svg">
<path d="M15.3513 5.03223V7.71889L18.0353 6.16889L18.702 7.32423L15.3513 9.25823V13.8769L19.3513 11.5676V7.69889H20.6847V10.7976L23.012 9.45489L23.6786 10.6096L21.3513 11.9529L24.0353 13.5022L23.3687 14.6576L20.018 12.7222L16.018 15.0316L20.0187 17.3416L23.3687 15.4069L24.0353 16.5616L21.3513 18.1109L23.6786 19.4549L23.012 20.6096L20.6847 19.2662V22.3656H19.3513V18.4962L15.3513 16.1862V20.8056L18.702 22.7402L18.0353 23.8949L15.3513 22.3449V25.0322H14.018V22.3449L11.334 23.8949L10.6673 22.7402L14.018 20.8056V16.1862L10.018 18.4956V22.3656H8.68465V19.2656L6.35798 20.6096L5.69132 19.4549L8.01732 18.1109L5.33398 16.5616L6.00065 15.4069L9.35065 17.3409L13.3506 15.0316L9.35132 12.7222L6.00065 14.6576L5.33398 13.5022L8.01798 11.9529L5.69132 10.6096L6.35798 9.45489L8.68465 10.7976V7.69889H10.018V11.5676L14.018 13.8769V9.25823L10.6673 7.32423L11.334 6.16889L14.018 7.71889V5.03223H15.3513Z" fill="#20D795"/>
</svg>
