<svg width="25" height="25" viewBox="0 0 25 25" fill="none" xmlns="http://www.w3.org/2000/svg">
<path d="M13.683 6.67969H5.90297C4.19297 6.67969 2.79297 8.07969 2.79297 9.78969V21.1497C2.79297 22.5997 3.83297 23.2197 5.10297 22.5097L9.03297 20.3197C9.45297 20.0897 10.133 20.0897 10.543 20.3197L14.473 22.5097C15.753 23.2097 16.793 22.5997 16.793 21.1497V9.78969C16.793 8.07969 15.393 6.67969 13.683 6.67969Z" fill="white"/>
<path d="M22.7928 5.9098V17.2698C22.7928 18.7198 21.7528 19.3298 20.4828 18.6298L18.5528 17.5498C18.3928 17.4598 18.2928 17.2898 18.2928 17.1098V9.7898C18.2928 7.2498 16.2228 5.1798 13.6828 5.1798H9.61281C9.24281 5.1798 8.98281 4.7898 9.15281 4.4698C9.67281 3.4798 10.7128 2.7998 11.9028 2.7998H19.6828C21.3928 2.7998 22.7928 4.1998 22.7928 5.9098Z" fill="white"/>
</svg>
