<svg width="25" height="25" viewBox="0 0 25 25" fill="none" xmlns="http://www.w3.org/2000/svg">
<path d="M5.79297 8.36914C4.13297 8.36914 2.79297 9.70914 2.79297 11.3691V19.3691C2.79297 21.0291 4.13297 22.3691 5.79297 22.3691H7.29297C8.39297 22.3691 9.29297 21.4691 9.29297 20.3691V10.3691C9.29297 9.26914 8.39297 8.36914 7.29297 8.36914H5.79297ZM6.79297 17.3691C6.79297 17.7791 6.45297 18.1191 6.04297 18.1191C5.63297 18.1191 5.29297 17.7791 5.29297 17.3691V13.3691C5.29297 12.9591 5.63297 12.6191 6.04297 12.6191C6.45297 12.6191 6.79297 12.9591 6.79297 13.3691V17.3691Z" fill="white"/>
<path d="M19.793 2.36914H13.793C12.133 2.36914 10.793 3.70914 10.793 5.36914V19.3691C10.793 21.0291 12.133 22.3691 13.793 22.3691H14.293C14.573 22.3691 14.793 22.1491 14.793 21.8691V18.3691C14.793 17.8191 15.243 17.3691 15.793 17.3691H17.793C18.343 17.3691 18.793 17.8191 18.793 18.3691V21.8691C18.793 22.1491 19.013 22.3691 19.293 22.3691H19.793C21.453 22.3691 22.793 21.0291 22.793 19.3691V5.36914C22.793 3.70914 21.453 2.36914 19.793 2.36914ZM15.543 13.3691C15.543 13.7791 15.203 14.1191 14.793 14.1191C14.383 14.1191 14.043 13.7791 14.043 13.3691V8.36914C14.043 7.95914 14.383 7.61914 14.793 7.61914C15.203 7.61914 15.543 7.95914 15.543 8.36914V13.3691ZM19.543 13.3691C19.543 13.7791 19.203 14.1191 18.793 14.1191C18.383 14.1191 18.043 13.7791 18.043 13.3691V8.36914C18.043 7.95914 18.383 7.61914 18.793 7.61914C19.203 7.61914 19.543 7.95914 19.543 8.36914V13.3691Z" fill="white"/>
</svg>
