<svg width="32" height="31" viewBox="0 0 32 31" fill="none" xmlns="http://www.w3.org/2000/svg">
<g id="24/UI/3d">
<path id="Vector" d="M25.4754 6.12138L19.1796 2.69398C18.2232 2.17093 17.1382 1.89453 16.0446 1.89453H15.9373C14.8437 1.89453 13.7587 2.17093 12.8023 2.69398L6.50646 6.12138C4.42214 7.25677 3.12695 9.42547 3.12695 11.7813V19.2144C3.12695 21.5787 4.42643 23.7517 6.52361 24.8828L12.8752 28.3187C13.8273 28.8333 14.908 29.1054 15.9931 29.1054C17.0781 29.1054 18.1589 28.8333 19.111 28.3187L25.4626 24.8828C27.5554 23.7517 28.8592 21.5787 28.8592 19.2102V11.777C28.8592 9.42122 27.564 7.25251 25.4797 6.11713L25.4754 6.12138ZM25.2052 10.6672L24.845 10.008C24.9908 10.2122 25.1152 10.4333 25.2052 10.6672ZM14.4492 5.67489C14.9038 5.42825 15.4141 5.29642 15.933 5.29642H16.0403C16.5592 5.29642 17.0696 5.42825 17.5242 5.67489L23.82 9.10229C24.0087 9.20435 24.1802 9.33192 24.3432 9.468L16.6407 13.6353C16.2418 13.8522 15.7315 13.8522 15.3326 13.6353L7.6301 9.468C7.78878 9.33192 7.96033 9.20435 8.15332 9.10229L14.4492 5.67489ZM7.13261 10.0123L6.77236 10.6714C6.86671 10.4375 6.98679 10.2164 7.13261 10.0123ZM8.1619 21.9019C7.17121 21.3661 6.55363 20.337 6.55363 19.2187V12.7636L13.69 16.6247C13.8788 16.7268 14.0717 16.8118 14.2733 16.8884V25.206L8.1619 21.9019ZM23.82 21.9019L17.7086 25.206V16.8884C17.9059 16.8118 18.1031 16.7268 18.2918 16.6247L25.4283 12.7636V19.2187C25.4283 20.337 24.8107 21.3661 23.82 21.9019Z" fill="#20D795"/>
</g>
</svg>
