<svg width="32" height="32" viewBox="0 0 32 32" fill="none" xmlns="http://www.w3.org/2000/svg">
<path d="M13.1753 25.9999C12.444 25.9999 11.8511 25.4071 11.8511 24.6758V14.1118C11.8511 13.4553 12.3833 12.9231 13.0398 12.9231H16.0852C17.6893 12.9231 18.7333 12.9873 19.2203 13.1182C21.0029 13.5892 21.8594 15.1879 21.8594 16.9473C21.8594 18.8263 20.8542 20.4663 18.9494 20.8798C18.3193 21.0048 17.4093 21.0687 16.216 21.0687H14.4992V24.6758C14.4992 25.407 13.9065 25.9998 13.1753 25.9999ZM9.58846 14.147C9.58846 15.8494 7 15.8494 7 14.147V11.6739C7 11.1627 7.29678 10.7207 7.72731 10.5102L15.238 6.17385C15.6557 5.93195 16.1534 5.9506 16.5418 6.17945L24.6317 10.8502C25.0444 11.0892 25.2786 11.5223 25.2788 11.9675V24.7058C25.2788 26.4081 22.6904 26.4081 22.6904 24.7058V12.7113L15.8851 8.7823L9.58846 12.4178V14.147ZM14.4992 15.133V18.8588H15.9392C16.9771 18.8588 17.668 18.789 18.018 18.6518C18.7312 18.3729 19.1383 17.7484 19.1383 16.987C19.1383 16.0697 18.5612 15.3872 17.6618 15.2212C17.3483 15.1634 16.7182 15.133 15.7687 15.133H14.4992Z" fill="white"/>
</svg>
