<svg width="28" height="28" viewBox="0 0 28 28" fill="none" xmlns="http://www.w3.org/2000/svg">
<path d="M1.6184 15.9048H26.3803C26.6329 15.9048 26.8751 15.8045 27.0537 15.6259C27.2323 15.4473 27.3327 15.205 27.3327 14.9525C27.3327 14.6999 27.2323 14.4576 27.0537 14.279C26.8751 14.1004 26.6329 14.0001 26.3803 14.0001H3.52316V3.77151C3.52318 3.5296 3.59632 3.29334 3.73298 3.09372C3.86964 2.89411 4.06344 2.74046 4.28896 2.65293C4.51448 2.5654 4.7612 2.54807 4.99674 2.60322C5.23228 2.65838 5.44566 2.78343 5.60887 2.96199L5.77078 3.14294C5.48482 3.68144 5.37863 4.2973 5.46774 4.90048C5.55684 5.50365 5.83657 6.0625 6.26602 6.49532L7.60887 7.8477C7.69741 7.93697 7.80274 8.00782 7.9188 8.05617C8.03486 8.10452 8.15934 8.12941 8.28506 8.12941C8.41079 8.12941 8.53527 8.10452 8.65133 8.05617C8.76738 8.00782 8.87272 7.93697 8.96125 7.8477L11.6565 5.15246C11.7458 5.06393 11.8166 4.95859 11.865 4.84254C11.9133 4.72648 11.9382 4.602 11.9382 4.47627C11.9382 4.35055 11.9133 4.22606 11.865 4.11001C11.8166 3.99395 11.7458 3.88862 11.6565 3.80008L10.3041 2.45722C9.89627 2.0674 9.38465 1.80345 8.8306 1.69703C8.27654 1.59061 7.70355 1.64623 7.1803 1.85722L7.0184 1.67627C6.72558 1.35949 6.37069 1.10638 5.97581 0.932699C5.58094 0.75902 5.15454 0.66849 4.72316 0.666748C3.89972 0.666748 3.11002 0.993856 2.52776 1.57611C1.9455 2.15837 1.6184 2.94808 1.6184 3.77151V14.0001C1.36581 14.0001 1.12357 14.1004 0.944962 14.279C0.766355 14.4576 0.666016 14.6999 0.666016 14.9525C0.666016 15.205 0.766355 15.4473 0.944962 15.6259C1.12357 15.8045 1.36581 15.9048 1.6184 15.9048Z" fill="white"/>
<path d="M1.61914 16.8572V19.7143C1.61914 21.2298 2.22118 22.6833 3.29282 23.7549C4.36445 24.8266 5.8179 25.4286 7.33343 25.4286H8.28581V26.381C8.28581 26.6336 8.38615 26.8758 8.56475 27.0544C8.74336 27.233 8.9856 27.3334 9.23819 27.3334C9.49078 27.3334 9.73302 27.233 9.91162 27.0544C10.0902 26.8758 10.1906 26.6336 10.1906 26.381V25.4286H17.8096V26.381C17.8096 26.6336 17.91 26.8758 18.0886 27.0544C18.2672 27.233 18.5094 27.3334 18.762 27.3334C19.0146 27.3334 19.2568 27.233 19.4354 27.0544C19.614 26.8758 19.7144 26.6336 19.7144 26.381V25.4286H20.6668C22.1823 25.4286 23.6357 24.8266 24.7074 23.7549C25.779 22.6833 26.381 21.2298 26.381 19.7143V16.8572H1.61914Z" fill="white"/>
</svg>
