<svg width="31" height="28" viewBox="0 0 31 28" fill="none" xmlns="http://www.w3.org/2000/svg">
<path d="M26.077 8.62198C27.1538 8.62198 28.202 9.01333 29.0881 9.72146V6.40966C29.0881 4.71579 28.4741 3.11712 27.4035 2.02371C26.5468 1.14862 25.4572 0.666748 24.3353 0.666748H6.19033C5.06846 0.666748 3.97887 1.14862 3.12224 2.02363C2.05152 3.11712 1.4375 4.71571 1.4375 6.40966V9.72146C2.32365 9.01341 3.37174 8.62198 4.44862 8.62198H4.51242V6.88879C4.51242 5.55067 5.41336 4.46203 6.52077 4.46203H11.9348C13.0422 4.46203 13.9432 5.55067 13.9432 6.88879V8.62198H16.5825V6.88879C16.5825 5.55067 17.4835 4.46203 18.5909 4.46203H24.0049C25.1123 4.46203 26.0133 5.55067 26.0133 6.88879V8.62198H26.077Z" fill="white"/>
<path d="M6.52101 6.08008C6.15188 6.08008 5.85156 6.44296 5.85156 6.889V8.62219H12.6045V6.889C12.6045 6.44296 12.3042 6.08008 11.9351 6.08008H6.52101Z" fill="white"/>
<path d="M18.5913 6.08008C18.2222 6.08008 17.9219 6.44296 17.9219 6.889V8.62219H24.6748V6.889C24.6748 6.44296 24.3745 6.08008 24.0054 6.08008H18.5913Z" fill="white"/>
<path d="M26.0769 10.2402H4.44849C3.30808 10.2402 2.20898 10.8194 1.43309 11.8294C0.72434 12.7518 0.333984 13.9531 0.333984 15.2118V19.6534H30.1914V15.2118C30.1914 13.9531 29.8012 12.7519 29.0924 11.8295C28.3165 10.8195 27.2173 10.2402 26.0769 10.2402Z" fill="white"/>
<path d="M28.8535 26.5245C28.8535 26.9712 29.1533 27.3334 29.523 27.3334C29.8926 27.3334 30.1924 26.9712 30.1924 26.5245V21.6831H28.8535V26.5245Z" fill="white"/>
<path d="M1.67288 26.5245V21.6831H0.333984V26.5245C0.333984 26.9712 0.633764 27.3334 1.00343 27.3334C1.3731 27.3334 1.67288 26.9712 1.67288 26.5245Z" fill="white"/>
</svg>
