<svg width="16" height="13" viewBox="0 0 16 13" fill="none" xmlns="http://www.w3.org/2000/svg">
<path d="M7.38256 0.339844H1.58783C1.06678 0.339844 0.65625 0.75037 0.65625 1.27142V11.5504C0.65625 12.0714 1.06678 12.4977 1.58783 12.4977H7.38256C7.55625 12.4977 7.69835 12.3398 7.69835 12.1662V0.671423C7.71414 0.481949 7.57204 0.339844 7.38256 0.339844ZM5.77204 6.403C5.70888 6.52932 5.56678 6.62405 5.40888 6.62405H4.71414V8.28195C4.71414 8.58195 4.4773 8.81879 4.1773 8.81879C3.8773 8.81879 3.64046 8.58195 3.64046 8.28195V6.62405H2.94572C2.80362 6.62405 2.66151 6.54511 2.58257 6.403C2.51941 6.27669 2.51941 6.11879 2.61414 5.99247L3.84572 4.17669C3.92467 4.06616 4.05099 4.003 4.1773 4.003C4.30362 4.003 4.42993 4.06616 4.50888 4.17669L5.74046 5.99247C5.8352 6.11879 5.85099 6.27669 5.77204 6.403Z" fill="white"/>
<path d="M14.7092 0.339844H8.93021C8.75653 0.339844 8.59863 0.481949 8.59863 0.671423V12.1662C8.59863 12.3398 8.75653 12.4977 8.93021 12.4977H14.7092C15.2302 12.4977 15.6565 12.0714 15.6565 11.5504V1.27142C15.6565 0.766159 15.246 0.339844 14.7092 0.339844ZM13.6986 6.84511L12.4671 8.66089C12.3881 8.77142 12.2618 8.83458 12.1355 8.83458C12.0092 8.83458 11.8828 8.77142 11.8039 8.66089L10.5723 6.84511C10.4934 6.71879 10.4776 6.5609 10.5407 6.43458C10.6039 6.30826 10.746 6.21353 10.9039 6.21353H11.5986V4.55563C11.5986 4.25563 11.8355 4.01879 12.1355 4.01879C12.4355 4.01879 12.6723 4.25563 12.6723 4.55563V6.21353H13.3671C13.5092 6.21353 13.6513 6.29247 13.7302 6.43458C13.7934 6.5609 13.7776 6.71879 13.6986 6.84511Z" fill="white"/>
</svg>
