<svg width="32" height="32" viewBox="0 0 32 32" fill="none" xmlns="http://www.w3.org/2000/svg">
<path d="M26.824 9.04207L19.0892 3.92788C18.2199 3.35341 17.1987 3.04688 16.154 3.04688C15.1094 3.04688 14.0881 3.35341 13.2189 3.92788L5.48404 9.04207C4.75884 9.52133 4.16423 10.1708 3.75304 10.9327C3.34184 11.6946 3.12678 12.5454 3.12695 13.4095V24.0335C3.12695 25.3181 3.64164 26.5501 4.55778 27.4585C5.47392 28.3669 6.71648 28.8772 8.0121 28.8772H24.2959C25.5916 28.8772 26.8341 28.3669 27.7503 27.4585C28.6664 26.5501 29.1811 25.3181 29.1811 24.0335V13.4095C29.1813 12.5454 28.9662 11.6946 28.555 10.9327C28.1438 10.1708 27.5492 9.52133 26.824 9.04207ZM6.38372 13.4095C6.38389 13.0772 6.46685 12.75 6.62522 12.457C6.78359 12.1641 7.01248 11.9145 7.29154 11.7304L11.2689 9.09858V15.1533H6.38372V13.4095ZM17.7824 25.6481H8.0121C7.58023 25.6481 7.16604 25.478 6.86066 25.1752C6.55528 24.8724 6.38372 24.4617 6.38372 24.0335V18.3824H17.7824V25.6481ZM25.9243 24.0335C25.9243 24.4617 25.7528 24.8724 25.4474 25.1752C25.142 25.478 24.7278 25.6481 24.2959 25.6481H21.0392V18.3824H25.9243V24.0335ZM25.9243 15.1533H14.5256V6.94715L15.0264 6.61616C15.3609 6.39488 15.7539 6.27679 16.1561 6.27679C16.5582 6.27679 16.9513 6.39488 17.2857 6.61616L25.0206 11.7304C25.2989 11.9149 25.527 12.1648 25.6846 12.4577C25.8423 12.7506 25.9246 13.0775 25.9243 13.4095V15.1533Z" fill="#20D795"/>
</svg>
