<svg width="32" height="32" viewBox="0 0 32 32" fill="none" xmlns="http://www.w3.org/2000/svg">
<path d="M22.682 0H9.25671C4.16858 0 0 4.12121 0 9.09091V22.9091C0 27.9394 4.16858 32 9.25671 32H22.7433C27.8314 32 32 27.8788 32 22.9091V9.09091C31.9387 4.12121 27.7701 0 22.682 0ZM5.27179 6.66667C5.27179 5.63636 6.06873 4.84848 7.11087 4.84848H14.4672C15.5093 4.84848 16.3063 5.63636 16.3063 6.66667C16.3063 7.69697 15.5093 8.48485 14.4672 8.48485H8.94995V13.9394C8.94995 14.9697 8.15302 15.7576 7.11087 15.7576C6.06873 15.7576 5.27179 14.9697 5.27179 13.9394V6.66667ZM27.0342 25.4545C27.0342 26.4848 26.2373 27.2727 25.1952 27.2727H17.8388C16.7967 27.2727 15.9998 26.4848 15.9998 25.4545C15.9998 24.4242 16.7967 23.6364 17.8388 23.6364H23.3561V18.1818C23.3561 17.1515 24.153 16.3636 25.1952 16.3636C26.2373 16.3636 27.0342 17.1515 27.0342 18.1818V25.4545Z" fill="white"/>
</svg>
