<svg width="32" height="31" viewBox="0 0 32 31" fill="none" xmlns="http://www.w3.org/2000/svg">
<path d="M27.3833 10.9149C26.0154 4.94741 20.7655 2.26074 16.1539 2.26074C16.1539 2.26074 16.1539 2.26074 16.1409 2.26074C11.5424 2.26074 6.27943 4.93449 4.91159 10.902C3.38742 17.567 7.50397 23.2116 11.2297 26.7637C12.6106 28.0812 14.3823 28.7399 16.1539 28.7399C17.9256 28.7399 19.6973 28.0812 21.0651 26.7637C24.7909 23.2116 28.9074 17.5799 27.3833 10.9149ZM16.1539 17.3862C13.8872 17.3862 12.0504 15.5649 12.0504 13.3174C12.0504 11.0699 13.8872 9.24866 16.1539 9.24866C18.4207 9.24866 20.2575 11.0699 20.2575 13.3174C20.2575 15.5649 18.4207 17.3862 16.1539 17.3862Z" fill="#20D795"/>
</svg>
