<svg width="21" height="16" viewBox="0 0 21 16" fill="none" xmlns="http://www.w3.org/2000/svg">
<g clip-path="url(#clip0_6461_11427)">
<g filter="url(#filter0_b_6461_11427)">
<path d="M17.5245 10.4152C17.538 10.39 17.5321 10.3588 17.5103 10.3402C16.8237 9.75468 16.1305 9.17773 15.4585 8.57736C15.2826 8.42521 15.1505 8.2279 15.0763 8.00623C14.9875 7.68953 15.1253 7.41294 15.4126 7.23769C15.7458 7.03395 16.055 7.10679 16.338 7.34326C17.1736 8.05479 18.0093 8.76703 18.8449 9.47997L20.1558 10.5958C20.6143 10.9885 20.6498 11.4193 20.2236 11.8563C19.1589 12.9472 18.0873 14.0307 17.0086 15.1068C16.6357 15.4805 16.2137 15.4889 15.8899 15.1585C15.5661 14.8281 15.5902 14.4068 15.9589 14.0268C16.5166 13.4536 17.0828 12.8888 17.6437 12.3198C17.7646 12.196 17.6765 11.987 17.5038 11.9766C16.8991 11.9404 16.3271 11.91 15.7573 11.8595C11.949 11.5248 8.20854 10.8893 4.71357 9.22027C3.66905 8.71882 2.68512 8.10019 1.87875 7.24192C1.12043 6.43538 0.6107 5.51376 0.663971 4.35145C0.700948 3.59331 0.98564 2.86895 1.47347 2.29181C1.81964 1.88177 2.19681 1.49952 2.60155 1.14851C2.96296 0.824416 3.41837 0.862421 3.69621 1.18863C3.97405 1.51483 3.9166 1.96983 3.55102 2.31821C3.21782 2.63491 2.86791 2.94634 2.59633 3.31372C1.99887 4.12026 2.01036 4.87718 2.57544 5.71329C3.01832 6.37098 3.62936 6.84392 4.2895 7.25142C5.97953 8.29338 7.84086 8.90356 9.74607 9.37651C11.9398 9.9128 14.1774 10.2453 16.431 10.3699C16.7771 10.3902 17.1213 10.4214 17.4663 10.4472C17.4903 10.449 17.5131 10.4365 17.5245 10.4152Z" fill="white"/>
</g>
</g>
<defs>
<filter id="filter0_b_6461_11427" x="-6.23878" y="-5.97511" width="33.6602" height="28.2715" filterUnits="userSpaceOnUse" color-interpolation-filters="sRGB">
<feFlood flood-opacity="0" result="BackgroundImageFix"/>
<feGaussianBlur in="BackgroundImageFix" stdDeviation="3.44947"/>
<feComposite in2="SourceAlpha" operator="in" result="effect1_backgroundBlur_6461_11427"/>
<feBlend mode="normal" in="SourceGraphic" in2="effect1_backgroundBlur_6461_11427" result="shape"/>
</filter>
<clipPath id="clip0_6461_11427">
<rect width="19.8626" height="14.4713" fill="white" transform="translate(0.654297 0.929688)"/>
</clipPath>
</defs>
</svg>
