<svg width="21" height="22" viewBox="0 0 21 22" fill="none" xmlns="http://www.w3.org/2000/svg">
<g clip-path="url(#clip0_6461_11430)">
<g filter="url(#filter0_b_6461_11430)">
<path d="M3.67083 16.4143C3.65734 16.389 3.66323 16.3578 3.685 16.3392C4.37161 15.7537 5.06477 15.1768 5.73677 14.5764C5.91272 14.4242 6.04479 14.2269 6.11906 14.0053C6.20784 13.6885 6.06997 13.412 5.78272 13.2367C5.44952 13.033 5.14034 13.1058 4.85728 13.3423C4.02166 14.0538 3.18605 14.7661 2.35043 15.479L1.03956 16.5948C0.581017 16.9876 0.545504 17.4183 0.971666 17.8553C2.03638 18.9462 3.10806 20.0297 4.1867 21.1058C4.55959 21.4795 4.98158 21.4879 5.30538 21.1575C5.62918 20.8271 5.60515 20.4059 5.23644 20.0258C4.67867 19.4526 4.11254 18.8878 3.55163 18.3188C3.43071 18.1951 3.51882 17.986 3.69151 17.9757C4.29625 17.9395 4.86817 17.9091 5.43803 17.8585C9.24635 17.5238 12.9868 16.8883 16.4817 15.2193C17.5263 14.7178 18.5102 14.0992 19.3166 13.2409C20.0749 12.4344 20.5846 11.5128 20.5313 10.3505C20.4944 9.59233 20.2097 8.86798 19.7218 8.29084C19.3757 7.88079 18.9985 7.49854 18.5938 7.14753C18.2324 6.82344 17.7769 6.86144 17.4991 7.18765C17.2213 7.51386 17.2787 7.96885 17.6443 8.31723C17.9775 8.63394 18.3274 8.94536 18.599 9.31274C19.1964 10.1193 19.185 10.8762 18.6199 11.7123C18.177 12.37 17.5659 12.8429 16.9058 13.2504C15.2158 14.2924 13.3544 14.9026 11.4492 15.3755C9.25554 15.9118 7.01792 16.2443 4.76432 16.3689C4.41821 16.3893 4.07403 16.4204 3.72899 16.4462C3.70498 16.448 3.68219 16.4355 3.67083 16.4143Z" fill="white"/>
</g>
</g>
<defs>
<filter id="filter0_b_6461_11430" x="-6.22609" y="0.0239115" width="33.6602" height="28.2715" filterUnits="userSpaceOnUse" color-interpolation-filters="sRGB">
<feFlood flood-opacity="0" result="BackgroundImageFix"/>
<feGaussianBlur in="BackgroundImageFix" stdDeviation="3.44947"/>
<feComposite in2="SourceAlpha" operator="in" result="effect1_backgroundBlur_6461_11430"/>
<feBlend mode="normal" in="SourceGraphic" in2="effect1_backgroundBlur_6461_11430" result="shape"/>
</filter>
<clipPath id="clip0_6461_11430">
<rect width="19.8626" height="14.4713" fill="white" transform="matrix(-1 0 0 1 20.543 6.92969)"/>
</clipPath>
</defs>
</svg>
