<svg width="16" height="17" viewBox="0 0 16 17" fill="none" xmlns="http://www.w3.org/2000/svg">
<path d="M11.9642 14.3733C11.7017 14.3733 11.45 14.481 11.2645 14.6725C11.0789 14.8641 10.9746 15.1239 10.9746 15.3948C10.9746 15.6658 11.0789 15.9256 11.2645 16.1171C11.45 16.3087 11.7017 16.4163 11.9642 16.4163H13.9434C14.4683 16.4163 14.9717 16.2011 15.3428 15.818C15.714 15.4348 15.9225 14.9152 15.9225 14.3733V2.62602C15.9225 2.08418 15.714 1.56453 15.3428 1.18139C14.9717 0.798253 14.4683 0.583008 13.9434 0.583008H11.9642C11.7017 0.583008 11.45 0.690631 11.2645 0.8822C11.0789 1.07377 10.9746 1.33359 10.9746 1.60451C10.9746 1.87543 11.0789 2.13526 11.2645 2.32683C11.45 2.5184 11.7017 2.62602 11.9642 2.62602H13.9434V5.17978H11.9642C11.7017 5.17978 11.45 5.2874 11.2645 5.47897C11.0789 5.67054 10.9746 5.93037 10.9746 6.20129C10.9746 6.47221 11.0789 6.73203 11.2645 6.9236C11.45 7.11517 11.7017 7.22279 11.9642 7.22279H13.9434V9.77656H11.9642C11.7017 9.77656 11.45 9.88418 11.2645 10.0757C11.0789 10.2673 10.9746 10.5271 10.9746 10.7981C10.9746 11.069 11.0789 11.3288 11.2645 11.5204C11.45 11.7119 11.7017 11.8196 11.9642 11.8196H13.9434V14.3733H11.9642Z" fill="white"/>
<path d="M5.53114 8.74668V4.45798L6.8092 5.73668C6.99475 5.92231 7.2464 6.0266 7.5088 6.0266C7.7712 6.0266 8.02285 5.92231 8.2084 5.73668C8.39394 5.55104 8.49818 5.29926 8.49818 5.03673C8.49818 4.7742 8.39394 4.52243 8.2084 4.33679L6.08489 2.21223C5.88218 2.00934 5.64151 1.8484 5.37662 1.73859C5.11173 1.62878 4.82781 1.57227 4.54108 1.57227C4.25435 1.57227 3.97043 1.62878 3.70554 1.73859C3.44065 1.8484 3.19998 2.00934 2.99727 2.21223L0.873766 4.33679C0.688222 4.52243 0.583984 4.7742 0.583984 5.03673C0.583984 5.29926 0.688222 5.55104 0.873766 5.73668C1.05931 5.92231 1.31096 6.0266 1.57336 6.0266C1.83576 6.0266 2.08741 5.92231 2.27296 5.73668L3.55349 4.45798V8.25202V12.5407L2.27543 11.262C2.08989 11.0764 1.83823 10.9721 1.57583 10.9721C1.31343 10.9721 1.06178 11.0764 0.876238 11.262C0.690694 11.4477 0.586457 11.6994 0.586457 11.962C0.586457 12.2245 0.690694 12.4763 0.876238 12.6619L2.99975 14.7865C3.20245 14.9894 3.44313 15.1503 3.70802 15.2601C3.97291 15.3699 4.25683 15.4264 4.54355 15.4264C4.83028 15.4264 5.1142 15.3699 5.37909 15.2601C5.64398 15.1503 5.88465 14.9894 6.08736 14.7865L8.21087 12.6619C8.30274 12.57 8.37562 12.4609 8.42534 12.3408C8.47506 12.2207 8.50065 12.092 8.50065 11.962C8.50065 11.832 8.47506 11.7033 8.42534 11.5832C8.37562 11.4631 8.30274 11.3539 8.21087 11.262C8.119 11.1701 8.00993 11.0972 7.88989 11.0474C7.76985 10.9977 7.6412 10.9721 7.51127 10.9721C7.38134 10.9721 7.25269 10.9977 7.13265 11.0474C7.01262 11.0972 6.90355 11.1701 6.81168 11.262L5.53114 12.5407V8.74668Z" fill="white"/>
</svg>
