<svg width="19" height="21" viewBox="0 0 19 21" fill="none" xmlns="http://www.w3.org/2000/svg">
<path d="M17.5659 2.52185L15.6248 0.904268C14.8285 0.23235 13.634 0.331893 12.9621 1.12824L2.08695 14.0938C1.93764 14.268 1.81321 14.4919 1.73855 14.7159L0.668459 17.976C0.12097 19.5935 1.86298 21.0369 3.35613 20.2157L6.36732 18.5981C6.59129 18.4737 6.76549 18.3244 6.9148 18.1502L17.8148 5.18463C18.4618 4.38828 18.3623 3.19376 17.5659 2.52185ZM14.5299 6.18007L12.5639 4.51271L14.3806 2.32276C14.4054 2.32276 14.4054 2.32276 14.4303 2.32276L16.3714 3.96523C16.3714 3.96523 16.3963 3.99011 16.3714 3.99011L14.5299 6.18007ZM11.3445 5.95609L13.3354 7.62344L5.49631 16.9556C5.49631 16.9556 2.73398 18.4488 2.46024 18.5732C2.43535 18.5981 2.43535 18.5732 2.43535 18.5483C2.5349 18.2248 3.48056 15.3381 3.50544 15.2883L11.3445 5.95609Z" fill="white"/>
</svg>
