<svg width="33" height="33" viewBox="0 0 33 33" fill="none" xmlns="http://www.w3.org/2000/svg">
<rect x="0.542969" y="0.773438" width="32" height="32" rx="16" fill="#808080" fill-opacity="0.3"/>
<path d="M8.17501 10.375C7.98156 10.375 7.79793 10.4156 7.62891 10.4827L15.9819 17.7819C16.3429 18.0973 16.7275 18.0976 17.0894 17.7819L25.4578 10.4827C25.2887 10.4156 25.1051 10.375 24.9117 10.375H8.17501ZM6.71363 11.6441C6.70431 11.7114 6.69824 11.7818 6.69824 11.8518V21.6969C6.69824 22.515 7.35689 23.1736 8.17501 23.1736H24.9117C25.7298 23.1736 26.3884 22.515 26.3884 21.6969V11.8518C26.3884 11.7818 26.3823 11.7114 26.373 11.6441L18.0586 18.8972C17.1911 19.6538 15.8802 19.655 15.0127 18.8972L6.71363 11.6441Z" fill="white"/>
</svg>
