<svg width="33" height="33" viewBox="0 0 33 33" fill="none" xmlns="http://www.w3.org/2000/svg">
<rect x="0.542969" y="0.773438" width="32" height="32" rx="16" fill="#808080" fill-opacity="0.3"/>
<path d="M20.9271 7.64062H18.5527C15.6302 7.64062 13.8037 9.46714 13.8037 12.3896V16.0883H17.8586L15.9681 14.1978C15.8311 14.0608 15.7672 13.8873 15.7672 13.7138C15.7672 13.5403 15.8311 13.3668 15.9681 13.2298C16.233 12.9649 16.6713 12.9649 16.9362 13.2298L19.9956 16.2892C20.2605 16.554 20.2605 16.9924 19.9956 17.2572L16.9362 20.3167C16.6713 20.5815 16.233 20.5815 15.9681 20.3167C15.7033 20.0518 15.7033 19.6134 15.9681 19.3486L17.8586 17.4582H13.8037V21.1569C13.8037 24.0793 15.6302 25.9058 18.5527 25.9058H20.918C23.8404 25.9058 25.6669 24.0793 25.6669 21.1569V12.3896C25.6761 9.46714 23.8496 7.64062 20.9271 7.64062Z" fill="white"/>
<path d="M8.0951 16.0879C7.72066 16.0879 7.41016 16.3984 7.41016 16.7728C7.41016 17.1473 7.72066 17.4578 8.0951 17.4578H13.803V16.0879H8.0951Z" fill="white"/>
</svg>
