<svg width="33" height="33" viewBox="0 0 33 33" fill="none" xmlns="http://www.w3.org/2000/svg">
<rect x="0.542969" y="0.773438" width="32" height="32" rx="16" fill="#808080" fill-opacity="0.3"/>
<path d="M25.231 7.4399C25.1736 7.33878 25.0935 7.25232 24.9971 7.1873C24.9007 7.12229 24.7905 7.08048 24.6752 7.06516C24.5599 7.04984 24.4427 7.06142 24.3326 7.09899C24.2226 7.13656 24.1227 7.1991 24.0409 7.28172L15.1148 16.2153C15.0104 16.3196 14.8776 16.3909 14.733 16.4203C14.5884 16.4498 14.4383 16.4361 14.3013 16.381C13.1835 15.9975 11.9685 16.0058 10.8561 16.4045C9.74363 16.8032 8.79997 17.5686 8.18028 18.5748C7.56058 19.5811 7.30175 20.7682 7.44634 21.9411C7.59093 23.1139 8.13034 24.2027 8.97585 25.0283C9.95684 25.9653 11.2612 26.4882 12.6178 26.4882C13.9744 26.4882 15.2788 25.9653 16.2598 25.0283C17.0242 24.2771 17.5385 23.3085 17.7326 22.2544C17.9267 21.2004 17.7912 20.1121 17.3445 19.1379L17.7964 18.6859C17.8967 18.5868 17.9672 18.4616 17.9998 18.3244L18.3689 16.4337C18.4012 16.2951 18.4721 16.1684 18.5734 16.0684C18.6747 15.9685 18.8023 15.8992 18.9414 15.8688L20.5684 15.5449C20.7084 15.5139 20.8367 15.4435 20.9381 15.3421C21.0395 15.2407 21.1098 15.1124 21.1409 14.9724L21.4572 13.3454C21.4889 13.2077 21.5587 13.0817 21.6586 12.9818C21.7585 12.882 21.8845 12.8122 22.0222 12.7804L23.8752 12.4038C24.0267 12.3683 24.1635 12.2868 24.2668 12.1703C25.6001 10.7241 26.1349 8.9464 25.231 7.4399ZM14.0829 22.8288C13.7844 23.1297 13.4033 23.3352 12.9878 23.4192C12.5724 23.5031 12.1414 23.4618 11.7495 23.3004C11.3576 23.139 11.0224 22.8648 10.7866 22.5126C10.5508 22.1604 10.4249 21.7461 10.4249 21.3223C10.4249 20.8985 10.5508 20.4842 10.7866 20.132C11.0224 19.7798 11.3576 19.5057 11.7495 19.3443C12.1414 19.1829 12.5724 19.1415 12.9878 19.2255C13.4033 19.3094 13.7844 19.5149 14.0829 19.8158C14.4803 20.2165 14.7033 20.758 14.7033 21.3223C14.7033 21.8867 14.4803 22.4281 14.0829 22.8288Z" fill="white"/>
</svg>
