<svg width="33" height="33" viewBox="0 0 33 33" fill="none" xmlns="http://www.w3.org/2000/svg">
<rect x="0.542969" y="0.773438" width="32" height="32" rx="16" fill="#808080" fill-opacity="0.3"/>
<g clip-path="url(#clip0_794_9678)">
<path fill-rule="evenodd" clip-rule="evenodd" d="M22.0577 19.4723C23.2473 20.1334 24.4375 20.7945 25.6271 21.4556C26.1391 21.7398 26.3637 22.3431 26.1621 22.8933C25.1386 25.6893 22.1411 27.1651 19.3207 26.1357C13.5455 24.0277 9.26448 19.7467 7.15647 13.9715C6.12708 11.1511 7.60289 8.15357 10.3989 7.13009C10.9491 6.92855 11.5524 7.15307 11.8373 7.66514C12.4977 8.85471 13.1588 10.0449 13.8199 11.2345C14.1298 11.7925 14.0569 12.455 13.6328 12.9316C13.0774 13.5566 12.522 14.1815 11.9666 14.8059C13.1523 17.6932 15.599 20.1399 18.4863 21.3256C19.1107 20.7702 19.7356 20.2148 20.3606 19.6594C20.8379 19.2353 21.4997 19.1624 22.0577 19.4723Z" fill="white"/>
</g>
<defs>
<clipPath id="clip0_794_9678">
<rect width="19.4324" height="19.4324" fill="white" transform="translate(6.82715 7.05664)"/>
</clipPath>
</defs>
</svg>
